<svg xmlns="http://www.w3.org/2000/svg" viewBox="0 0 200 196.83" fill="white"><path d="M47.95,133h4.92v7.57c0,1.73-1.25,2.83-3.02,2.83-1.55,0-2.62-.85-2.93-2.31l1.17-.25c.19.82.64,1.48,1.79,1.48s1.76-.63,1.76-1.96v-6.28h-3.69v-1.07h0ZM88.61,119.76h-10.33l14.93-52.65h13.73l14.93,52.65h-10.63l-3.24-12.9h-16.14l-3.24,12.9h-.01ZM94.49,98.19h10.86l-3.24-12.14-1.66-9.13h-1.21l-1.66,9.13-3.09,12.14ZM124.3,139.66c1.36-1.19,2.29-2.33,2.29-3.88,0-1.73-1.14-2.96-3.18-2.96s-2.93,1.2-3.33,2.4l1.1.41c.32-1.05.95-1.74,2.2-1.74s1.92.7,1.92,1.93v.18c0,1.04-.72,1.99-1.71,2.89l-3.41,3.08v1.26h6.83v-1.07h-5.55l2.86-2.49h-.02ZM132.32,137.25c-.67,0-.91.31-.91.7v.32c0,.4.23.7.91.7s.91-.31.91-.7v-.32c0-.4-.23-.7-.91-.7ZM135.89,138.11c0,3.34-1.08,5.29-3.57,5.29s-3.57-1.95-3.57-5.29,1.08-5.29,3.57-5.29,3.57,1.95,3.57,5.29ZM134.62,137.28c0-2.05-.66-3.38-2.3-3.38s-2.3,1.33-2.3,3.38v1.67c0,2.05.66,3.38,2.3,3.38s2.3-1.33,2.3-3.38v-1.67ZM141.89,139.66c1.36-1.19,2.29-2.33,2.29-3.88,0-1.73-1.14-2.96-3.18-2.96s-2.93,1.2-3.33,2.4l1.1.41c.32-1.05.95-1.74,2.2-1.74s1.92.7,1.92,1.93v.18c0,1.04-.72,1.99-1.71,2.89l-3.41,3.08v1.26h6.83v-1.07h-5.55l2.86-2.49h-.02ZM86.29,137.57l-1.1-.19c-1.45-.25-1.92-.83-1.92-1.74,0-1.16.78-1.76,2.15-1.76,1.27,0,2.01.51,2.58,1.26l.86-.75c-.69-.98-1.8-1.57-3.43-1.57-2.08,0-3.41.97-3.41,2.84,0,1.29.63,2.45,2.64,2.78l1.14.19c1.39.23,1.9.76,1.9,1.76,0,1.23-.81,1.95-2.29,1.95-1.23,0-2.07-.48-2.86-1.48l-.89.73c.76,1.05,1.88,1.8,3.71,1.8,2.27,0,3.57-1.14,3.57-3.03,0-1.33-.66-2.45-2.67-2.8h.02ZM74.49,139.39h4.25v-1.23h-4.25v1.23ZM65.68,119.76l-3.24-12.9h-16.14l-3.24,12.9h-10.33l14.93-52.65h13.73l14.93,52.65h-10.64ZM59.79,98.19l-3.24-12.14-1.66-9.13h-1.21l-1.66,9.13-3.09,12.14h10.86ZM66.42,133h-1.23v10.22h6.08v-1.07h-4.85v-9.16h0ZM200,168.52v18.05c0,5.67-4.59,10.26-10.26,10.26H10.26c-4.2,0-7.8-2.52-9.39-6.13-.56-1.26-.87-2.66-.87-4.12V10.26C0,4.59,4.59,0,10.26,0h179.48c5.67,0,10.26,4.59,10.26,10.26v158.26h0ZM3,10.26v158.26h194V10.26c0-4-3.26-7.26-7.26-7.26H10.26c-4,0-7.26,3.26-7.26,7.26ZM14.88,181.74v-1.86h3.41v-1.47h-5.1v8.23h5.1v-1.47h-3.41v-1.96h2.89v-1.46h-2.89ZM24.18,184.12h-.19l-.52-1.31-2.08-4.41h-1.84v8.23h1.58v-4.34l-.09-1.38h.19l.52,1.31,2.08,4.41h1.84v-8.23h-1.58v4.34l.09,1.38ZM28.63,179.88v6.76h1.69v-6.76h1.97v-1.47h-5.63v1.47h1.97ZM34.95,181.74v-1.86h3.41v-1.47h-5.1v8.23h5.1v-1.47h-3.41v-1.96h2.89v-1.46h-2.89ZM44.1,183.37c.88-.33,1.36-1.2,1.36-2.41,0-1.56-.79-2.56-2.26-2.56h-3.56v8.23h1.69v-3.11h1.12l1.27,3.11h1.83l-1.44-3.27h-.01ZM48.41,186.63v-3.04h1.88c1.47,0,2.26-1.03,2.26-2.59s-.79-2.6-2.26-2.6h-3.56v8.23h1.69,0ZM58.1,183.37c.88-.33,1.36-1.2,1.36-2.41,0-1.56-.79-2.56-2.26-2.56h-3.56v8.23h1.69v-3.11h1.12l1.27,3.11h1.83l-1.44-3.27h-.01ZM61.42,179.73v5.57h-.97v1.33h3.62v-1.33h-.97v-5.57h.97v-1.33h-3.62v1.33s.97,0,.97,0ZM68.92,184.26c0,.7-.4,1.04-1.18,1.04s-1.39-.32-1.85-.91l-1.08,1.08c.71.87,1.65,1.3,2.9,1.3,1.88,0,2.9-.96,2.9-2.7,0-1.39-.65-2.03-2.26-2.36l-.75-.15c-.58-.12-.83-.39-.83-.93,0-.62.33-.9,1.07-.9.68,0,1.18.24,1.59.74l1.09-1.08c-.61-.77-1.47-1.13-2.65-1.13-1.82,0-2.78.86-2.78,2.45,0,1.37.71,2.13,2.22,2.42l.75.14c.6.12.87.42.87.99h0ZM73.43,181.74v-1.86h3.41v-1.47h-5.1v8.23h5.1v-1.47h-3.41v-1.96h2.89v-1.46h-2.89ZM82.19,181.74v-1.86h3.41v-1.47h-5.1v8.23h5.1v-1.47h-3.41v-1.96h2.89v-1.46h-2.89ZM91.49,184.12h-.19l-.52-1.31-2.08-4.41h-1.84v8.23h1.58v-4.34l-.09-1.38h.19l.52,1.31,2.08,4.41h1.84v-8.23h-1.58v4.34l.09,1.38ZM97.35,186.63c2,0,3.22-1.17,3.22-4.12s-1.22-4.12-3.22-4.12h-2.89v8.23h2.89ZM103.46,186.63v-3.04h1.88c1.47,0,2.26-1.03,2.26-2.59s-.79-2.6-2.26-2.6h-3.56v8.23h1.69-.01ZM111.66,186.78c1.97,0,3.27-1.18,3.27-4.26s-1.3-4.26-3.27-4.26-3.27,1.18-3.27,4.26,1.3,4.26,3.27,4.26ZM116.83,179.73v5.57h-.97v1.33h3.62v-1.33h-.97v-5.57h.97v-1.33h-3.62v1.33h.97ZM125.32,184.12h-.19l-.52-1.31-2.08-4.41h-1.84v8.23h1.58v-4.34l-.09-1.38h.19l.52,1.31,2.08,4.41h1.84v-8.23h-1.58v4.34l.09,1.38ZM129.76,179.88v6.76h1.69v-6.76h1.97v-1.47h-5.63v1.47h1.97ZM140.41,184.26c0,.7-.4,1.04-1.18,1.04s-1.39-.32-1.85-.91l-1.08,1.08c.71.87,1.65,1.3,2.9,1.3,1.88,0,2.9-.96,2.9-2.7,0-1.39-.65-2.03-2.26-2.36l-.75-.15c-.58-.12-.83-.39-.83-.93,0-.62.33-.9,1.07-.9.68,0,1.18.24,1.59.74l1.09-1.08c-.61-.77-1.47-1.13-2.65-1.13-1.82,0-2.78.86-2.78,2.45,0,1.37.71,2.13,2.22,2.42l.75.14c.6.12.87.42.87.99h0ZM144.93,181.74v-1.86h3.41v-1.47h-5.09v8.23h5.09v-1.47h-3.41v-1.96h2.89v-1.46h-2.89ZM151.11,183.59v-2.15c0-1.13.58-1.7,1.51-1.7s1.17.48,1.34,1.19l1.46-.75c-.55-1.3-1.32-1.92-2.81-1.92-1.97,0-3.3,1.24-3.3,4.32s1.33,4.2,3.3,4.2c1.49,0,2.26-.72,2.83-1.96l-1.39-.8c-.21.71-.54,1.27-1.44,1.27s-1.51-.57-1.51-1.7h0ZM158.08,183.74v-5.34h-1.69v5.12c0,2.31.77,3.26,2.96,3.26s2.96-.94,2.96-3.26v-5.12h-1.69v5.34c0,1.08-.32,1.53-1.27,1.53s-1.27-.45-1.27-1.53ZM168.24,183.37c.88-.33,1.36-1.2,1.36-2.41,0-1.56-.79-2.56-2.26-2.56h-3.56v8.23h1.69v-3.11h1.12l1.27,3.11h1.83l-1.44-3.27h-.01ZM171.55,179.73v5.57h-.97v1.33h3.62v-1.33h-.97v-5.57h.97v-1.33h-3.62v1.33h.97ZM176.85,179.88v6.76h1.69v-6.76h1.97v-1.47h-5.63v1.47h1.97ZM183.35,183.53v3.1h1.69v-3.1l2.51-5.13h-1.8l-1.42,3.37h-.19l-1.46-3.37h-1.84l2.51,5.13h0ZM106.55,135.94c0,1.85-1.03,2.94-2.92,2.94h-2.49v4.34h-1.23v-10.22h3.72c1.89,0,2.92,1.1,2.92,2.94ZM105.25,135.56c0-.95-.62-1.49-1.64-1.49h-2.46v3.75h2.46c1.03,0,1.64-.54,1.64-1.49v-.76h0ZM61.02,139.14c0,1.98-.07,3.19-1.99,3.19s-1.99-1.22-1.99-3.19v-6.14h-1.23v5.84c0,3.03.44,4.56,3.22,4.56s3.22-1.52,3.22-4.56v-5.84h-1.23v6.14ZM91.13,143.22h6.3v-1.07h-5.07v-3.57h4.89v-1.07h-4.89v-3.44h5.07v-1.07h-6.3v10.22h0ZM107.76,134.07h3.41v9.16h1.23v-9.16h3.41v-1.07h-8.06v1.07h0ZM42.98,179.88h-1.66v2.24h1.66c.45,0,.73-.2.73-.77v-.71c0-.57-.28-.77-.73-.77h0ZM67.7,37.03c-1.33,0-2.51-.27-3.55-.8-1.04-.54-1.99-1.33-2.85-2.38l-2.73,2.55c1.03,1.26,2.26,2.26,3.69,3.01,1.44.75,3.18,1.12,5.23,1.12,1.4,0,2.65-.18,3.74-.54,1.1-.36,2.02-.87,2.78-1.54.76-.67,1.33-1.46,1.73-2.4.4-.93.6-1.97.6-3.12,0-1.96-.57-3.5-1.7-4.62-1.13-1.12-2.92-1.91-5.37-2.38l-2.17-.46c-1.33-.26-2.31-.64-2.94-1.14-.63-.5-.94-1.26-.94-2.29s.38-1.89,1.15-2.45c.77-.56,1.85-.84,3.25-.84s2.48.24,3.39.73c.91.49,1.68,1.14,2.31,1.96l2.76-2.45c-.96-1.21-2.11-2.14-3.46-2.78-1.35-.64-2.95-.96-4.79-.96-1.31,0-2.49.16-3.54.49-1.05.33-1.94.79-2.68,1.38s-1.31,1.33-1.72,2.2c-.41.88-.61,1.85-.61,2.92,0,1.96.6,3.5,1.79,4.62,1.19,1.12,2.97,1.9,5.35,2.35l2.17.38c1.42.28,2.41.7,2.97,1.26s.84,1.32.84,2.28c0,1.19-.4,2.13-1.19,2.83s-1.97,1.05-3.53,1.05l.02.02ZM26.46,25.91h-10.2v-10.2h10.2v10.2h3.95v-14.15H12.31v18.1h14.15v-3.95ZM26.46,44.02h18.1v-18.11h-14.15v3.95h10.2v10.2h-10.2v-10.2h-3.95v14.15h0ZM113.14,183.59v-2.15c0-1.12-.54-1.7-1.47-1.7s-1.47.58-1.47,1.7v2.15c0,1.12.54,1.7,1.47,1.7s1.47-.58,1.47-1.7ZM97.35,179.88h-1.2v5.28h1.2c.93,0,1.43-.53,1.43-1.65v-1.98c0-1.12-.5-1.65-1.43-1.65h0ZM152.22,140.21h1.52v1.01h-1.52v2.01h-1.17v-2.01h-5.04v-1.08l4.42-7.13h1.79v7.21h0ZM151.05,133.95h-.06l-3.88,6.25h3.94v-6.25ZM50.8,181.35v-.71c0-.55-.28-.77-.73-.77h-1.66v2.24h1.66c.45,0,.73-.21.73-.77h0ZM105.86,181.35v-.71c0-.55-.28-.77-.73-.77h-1.66v2.24h1.66c.45,0,.73-.21.73-.77h0ZM56.98,179.88h-1.66v2.24h1.66c.45,0,.73-.2.73-.77v-.71c0-.57-.28-.77-.73-.77h0ZM180.69,59.28v92.1c0,2.47-2.01,4.49-4.49,4.49H23.79c-2.47,0-4.49-2.01-4.49-4.49V59.28c0-2.47,2.01-4.48,4.49-4.48h152.42c2.47,0,4.49,2.01,4.49,4.48h0ZM179.93,59.28c0-2.05-1.67-3.72-3.72-3.72H23.79c-2.05,0-3.72,1.67-3.72,3.72v92.1c0,2.05,1.67,3.72,3.72,3.72h152.42c2.05,0,3.72-1.67,3.72-3.72V59.28ZM179.05,37.03c-1.33,0-2.51-.27-3.55-.8-1.04-.54-1.99-1.33-2.85-2.38l-2.73,2.55c1.03,1.26,2.26,2.26,3.69,3.01,1.43.75,3.18,1.12,5.23,1.12,1.4,0,2.65-.18,3.74-.54,1.1-.36,2.02-.87,2.78-1.54.76-.67,1.33-1.46,1.73-2.4.4-.93.6-1.97.6-3.12,0-1.96-.56-3.5-1.7-4.62-1.13-1.12-2.92-1.91-5.37-2.38l-2.17-.46c-1.33-.26-2.31-.64-2.94-1.14s-.94-1.26-.94-2.29.38-1.89,1.15-2.45c.77-.56,1.86-.84,3.26-.84s2.48.24,3.39.73,1.68,1.14,2.31,1.96l2.76-2.45c-.96-1.21-2.11-2.14-3.46-2.78-1.35-.64-2.95-.96-4.79-.96-1.31,0-2.49.16-3.53.49-1.05.33-1.94.79-2.68,1.38-.74.59-1.31,1.33-1.72,2.2-.41.88-.61,1.85-.61,2.92,0,1.96.59,3.5,1.78,4.62,1.19,1.12,2.97,1.9,5.35,2.35l2.17.38c1.42.28,2.41.7,2.97,1.26s.84,1.32.84,2.28c0,1.19-.4,2.13-1.19,2.83-.79.7-1.97,1.05-3.53,1.05v.02ZM167.12,179.88h-1.66v2.24h1.66c.45,0,.73-.2.73-.77v-.71c0-.57-.28-.77-.73-.77h0ZM152.49,67.11l14.93,52.65h-10.63l-3.24-12.9h-16.14l-3.24,12.9h-10.33l14.93-52.65h13.73,0ZM150.91,98.19l-3.24-12.14-1.66-9.13h-1.21l-1.66,9.13-3.09,12.14h10.86ZM161.06,40.11h-11.9V15.69h10.81c2.03,0,3.62.57,4.78,1.72,1.16,1.14,1.73,2.67,1.73,4.58,0,.91-.13,1.69-.38,2.33-.26.64-.58,1.17-.98,1.57-.4.41-.85.71-1.36.91s-1.02.32-1.51.37v.21c.49.02,1.03.14,1.63.35.6.21,1.15.54,1.66,1,.51.46.94,1.04,1.29,1.75.35.71.53,1.58.53,2.61s-.16,1.9-.47,2.76c-.31.86-.75,1.61-1.31,2.24s-1.22,1.12-1.99,1.49c-.77.36-1.61.54-2.52.54h0ZM153.12,26.01h6.12c.98,0,1.74-.25,2.27-.75.54-.5.81-1.22.81-2.15v-1.12c0-.93-.27-1.65-.81-2.15s-1.29-.75-2.27-.75h-6.12v6.93h0ZM159.91,36.72c1.03,0,1.83-.27,2.42-.81.58-.53.87-1.3.87-2.31v-1.19c0-1-.29-1.77-.87-2.31-.58-.54-1.39-.81-2.42-.81h-6.79v7.42h6.79ZM94.54,36.61h-11.69v-7.14h10.6v-3.5h-10.6v-6.79h11.69v-3.5h-15.64v24.42h15.64v-3.5h0ZM122.29,36.61h-9.94V15.69h-3.95v24.42h13.89v-3.5ZM128.97,40.11h-4.03l8.33-24.42h4.97l8.33,24.42h-4.13l-2.21-6.61h-9.13l-2.13,6.61h0ZM132.05,30.11h7.21l-3.5-10.78h-.17l-3.53,10.78h-.01Z" fill="#fff;"></path></svg>