<svg xmlns="http://www.w3.org/2000/svg" viewBox="0 0 360 184.25" fill="white"><path d="M88.37,153.28c0-2.93-1.32-4.53-4.84-4.53-2.17,0-4.96.68-4.96,1.32,0,.11.03.23.08.34l.56,1.72c.03.11.14.28.28.28.37,0,1.91-.84,3.49-.84,1.77,0,2,.82,2,2.08v.87c-2.22,0-7.35,0-7.35,4.76,0,2.65,1.63,4.34,4.22,4.34,2.11,0,3.1-1.13,3.66-1.69.14.7.56,1.69.82,1.69.11,0,.25-.08.37-.11l2.14-.87c.14-.06.25-.14.25-.25,0-.56-.73-.93-.73-3.66v-5.45h.01ZM84.99,159.92c-.34.34-1.07,1.07-2.11,1.07s-1.86-.82-1.86-1.91c0-2.48,3.27-2.25,3.97-2.25v3.1h0ZM123.45,162.31c.03.14.06.14.06.23,0,.53-2.06,1.07-3.97,1.07-3.63,0-3.63-2.84-3.63-5.43v-6.34h-2c-.34,0-.39-.08-.39-.39v-1.83c0-.31.06-.39.39-.39h2v-3.55c0-.37.06-.45.45-.51l2.48-.34c.08,0,.2-.03.37-.03.25,0,.28.14.28.48v3.94h3.21c.25,0,.48,0,.48.31,0,.06,0,.11-.03.23l-.37,1.66c-.08.39-.17.42-.51.42h-2.79v6.81c0,.9,0,1.72.96,1.72,1.13,0,1.83-.53,2.22-.53.11,0,.2.06.23.17l.56,2.31h0ZM111.31,153.28c0-2.93-1.32-4.53-4.84-4.53-2.17,0-4.96.68-4.96,1.32,0,.11.03.23.08.34l.56,1.72c.03.11.14.28.28.28.37,0,1.91-.84,3.49-.84,1.77,0,2,.82,2,2.08v.87c-2.22,0-7.35,0-7.35,4.76,0,2.65,1.63,4.34,4.22,4.34,2.11,0,3.1-1.13,3.66-1.69.14.7.56,1.69.82,1.69.11,0,.25-.08.37-.11l2.14-.87c.14-.06.25-.14.25-.25,0-.56-.73-.93-.73-3.66v-5.45h0ZM107.93,159.92c-.34.34-1.07,1.07-2.11,1.07s-1.86-.82-1.86-1.91c0-2.48,3.27-2.25,3.97-2.25v3.1h0ZM130.15,149.62v13.12c0,.31-.06.39-.39.39h-2.79c-.34,0-.39-.08-.39-.39v-10.9h-2.17c-.34,0-.39-.08-.39-.39v-1.83c0-.31.06-.39.39-.39h5.35c.34,0,.39.08.39.39ZM100.36,149.39c0,.11-.03.23-.06.28l-.87,2.37c-.03.08-.11.25-.23.25-.17,0-.68-.31-1.32-.31-.87,0-1.77.96-2.14,1.35v9.4c0,.31-.06.39-.39.39h-2.79c-.34,0-.39-.08-.39-.39v-8.5c0-3.1-.73-3.6-.73-4.25,0-.11.11-.2.25-.25l2.14-.87c.11-.03.25-.11.37-.11.34,0,.9,1.27,1.04,2.22.53-.65,1.58-2.22,3.49-2.22.82,0,1.63.28,1.63.65h0ZM24.74,150.46c0,.08-.06.17-.08.25l-1.04,1.83c-.06.06-.11.14-.2.14-.28,0-1.21-1.13-2.67-1.13-1.91,0-2.76,1.46-2.76,4.7s.73,4.53,2.9,4.53c1.44,0,2-.96,2.51-.96.08,0,.14.06.2.14l.73,1.86c.03.08.08.2.08.28,0,.68-2.28,1.49-3.97,1.49-3.91,0-6.25-2.39-6.25-7.15s2.39-7.71,6.56-7.71c1.52,0,4,.85,4,1.72h0ZM130.65,145.05c0,1.3-1.04,2.34-2.31,2.34s-2.34-1.04-2.34-2.34,1.04-2.31,2.34-2.31,2.31,1.01,2.31,2.31ZM311.53,162.96h7.72c.59,0,.69.1.69.69v2.31c0,.59-.1.69-.69.69h-11.88c-.33,0-.46-.13-.46-.46v-.26c0-2.74.2-3.99,1.02-5.48.96-1.75,1.78-2.54,5.28-5.25,2.24-1.72,2.97-2.9,2.97-4.75s-.99-2.77-2.71-2.77c-1.62,0-2.44.73-3.33,2.81-.13.33-.3.5-.5.5-.1,0-.26-.03-.36-.07l-2.11-.79c-.26-.1-.4-.26-.4-.5,0-.76.86-2.48,1.75-3.47,1.25-1.42,3.04-2.15,5.35-2.15,3.96,0,6.27,2.31,6.27,6.3,0,2.11-.63,3.83-1.95,5.28-.99,1.09-1.09,1.12-4.32,3.63-1.72,1.32-2.31,2.34-2.34,3.73h0ZM335.42,145.9l-7.69,13.07h5.15l.43-5.31c.03-.56.13-.63.69-.63h2.24c.63,0,.69.07.69.69v5.35h1.88c.63,0,.69.07.69.79v1.78c0,.56-.1.66-.69.66h-1.88v4.29c0,.59-.07.66-.69.66h-2.74c-.63,0-.69-.07-.69-.66v-4.29h-8.09c-.63,0-.69-.07-.69-.66v-3.47l8.22-13.73c.2-.33.3-.43.43-.43.1,0,.23.03.46.13l1.98.83c.36.17.5.26.5.46,0,.1-.07.26-.2.46h0ZM67.56,78.21h-11.97l3.04-12.65c1.67-6.96,3.04-16.28,3.04-16.28h.2s1.27,9.32,2.84,16.28l2.85,12.65ZM32.31,148.74c-3.8,0-6.11,2.9-6.11,7.43s2.31,7.43,6.11,7.43,6.11-2.9,6.11-7.43-2.34-7.43-6.11-7.43ZM32.31,160.79c-1.97,0-2.31-2-2.31-4.62s.37-4.62,2.31-4.62,2.31,2,2.31,4.62-.34,4.62-2.31,4.62ZM70.49,148.74c-1.89,0-2.98.87-3.6,1.46-.31-.93-.51-1.46-.87-1.46-.11,0-.25.03-.42.08l-2.14.7c-.2.06-.31.17-.31.31,0,.65.53.42.53,4.39v14.27c0,.48.06.59.2.59s.39-.06.48-.08l2.37-.48c.34-.06.54-.11.54-.51v-5.15c.59.31,1.3.73,2.93.73,3.66,0,5.18-2.76,5.18-7.69s-1.75-7.18-4.87-7.18l-.02.02h0ZM69.31,160.79c-1.1,0-1.55-.25-2.06-.53v-7.63c.39-.37,1.07-1.07,2.25-1.07,1.75,0,2.28,1.6,2.28,4.5,0,3.32-.51,4.73-2.48,4.73h.01ZM300.54,164.58c1.52-1.98,2.11-4.52,2.11-9.24,0-4.46-.69-7.06-2.41-9.04-1.25-1.45-3.1-2.28-5.05-2.28-2.28,0-4.36.89-5.68,2.41-1.72,1.91-2.54,4.98-2.54,9.37,0,7.39,2.74,11.42,7.72,11.42,2.48,0,4.49-.92,5.84-2.64h.01ZM291.23,155.67c0-5.54,1.16-8.12,3.63-8.12,1.29,0,2.21.63,2.74,1.78.59,1.35.79,3.1.79,6.93,0,2.9-.2,4.32-.69,5.48-.56,1.25-1.58,1.95-2.87,1.95-2.51,0-3.6-2.44-3.6-8.02h0ZM59.7,153.19v9.54c0,.31-.06.39-.39.39h-2.79c-.34,0-.39-.08-.39-.39v-8.67c0-1.07-.11-2.37-1.18-2.37-1.18,0-2.11.82-2.48,1.15v9.88c0,.31-.06.39-.39.39h-2.79c-.34,0-.39-.08-.39-.39v-8.67c0-1.07-.11-2.37-1.18-2.37-1.18,0-2.11.82-2.48,1.15v9.88c0,.31-.06.39-.39.39h-2.79c-.34,0-.39-.08-.39-.39v-8.5c0-3.97-.54-3.74-.54-4.39,0-.14.11-.25.31-.31l2.14-.7c.17-.06.31-.08.42-.08.37,0,.59.62.9,1.94.84-.73,2.08-1.94,4.31-1.94,1.21,0,2.53.76,2.87,1.94.84-.73,2.06-1.94,4.36-1.94,2.65,0,3.27,2,3.27,4.45h-.01ZM152.28,148.74c-3.77,0-6.17,3.1-6.17,7.57,0,5.18,2.59,7.29,6.31,7.29,2.22,0,5.04-.93,5.04-1.66,0-.11-.03-.23-.08-.31l-.7-1.69c-.06-.11-.17-.23-.31-.23-.39,0-1.55.93-3.58.93-2.65,0-3.1-1.94-3.1-3.52h7.57c.54,0,.65-.17.65-.7,0-3.41-.84-7.69-5.63-7.69h0ZM149.69,154.51c.08-.79.2-3.15,2.39-3.15,1.94,0,2.03,2,2.03,3.15h-4.42ZM228.83,33.4h-.94v-12.63h.94c1.3,0,1.78.11,2.4.54,1.21.81,1.7,2.48,1.7,5.97,0,3.02-.38,4.62-1.3,5.43-.57.51-1.35.7-2.81.7h.01ZM215.95,28.92h-3.46l1.08-4.62c.35-1.46.46-2.08.7-3.64.35,2.05.43,2.54.67,3.64l1,4.62h.01ZM343.56,0h-165.4c5.46,3.44,9.1,9.52,9.1,16.44v114.95h169.74v36.42c0,7.41-6.03,13.44-13.44,13.44h-161.72c-1.1,1.15-2.33,2.16-3.68,3h165.4c9.08,0,16.44-7.36,16.44-16.44V16.44c0-9.08-7.36-16.44-16.44-16.44ZM309.78,18.39c0-.49.08-.57.57-.57h4.24c1.84,0,2.08.03,2.81.16,3.43.65,5.02,3.56,5.02,9.12,0,4.59-1.11,7.37-3.43,8.56-1.08.54-1.84.67-4.4.67h-4.24c-.49,0-.57-.08-.57-.57v-17.38h0ZM297.14,18.39c0-.51.05-.57.57-.57h9.02c.4,0,.54.08.54.3,0,.08-.03.22-.05.35l-.54,1.84c-.11.35-.22.46-.59.46h-5.24v4.43h4.51c.49,0,.57.08.57.57v1.81c0,.49-.08.57-.57.57h-4.51v5.26h5.67c.49,0,.57.08.57.57v1.81c0,.51-.05.57-.57.57h-8.8c-.51,0-.57-.05-.57-.57v-17.4h-.01ZM267.86,18.39c0-.51.05-.57.57-.57h2.11c.51,0,.54.03.78.46l4.26,7.94c.65,1.19,1.27,2.75,1.73,4.16-.05-2.05-.05-2.38-.05-3.4v-8.58c0-.49.08-.57.57-.57h2.02c.51,0,.57.05.57.57v17.38c0,.51-.05.57-.57.57h-1.73c-.49,0-.57-.05-.81-.51l-4.64-8.75c-.89-1.67-1.27-2.54-1.73-3.83.05,1.26.08,2.36.08,3.29v9.23c0,.49-.08.57-.57.57h-2.03c-.51,0-.57-.05-.57-.57v-17.38h.01ZM256.94,17.82h2.81c.43,0,.46.03.59.46l5.32,17.41c.05.19.08.27.08.35,0,.22-.13.3-.54.3h-2.94c-.46,0-.51-.03-.62-.46l-1.16-4.43h-4.56l-1.16,4.43c-.11.43-.13.46-.59.46h-2.67c-.41,0-.54-.08-.54-.3,0-.11.03-.14.08-.35l5.32-17.41c.13-.43.16-.46.59-.46h0ZM238.17,18.07l2.83-.51c.11-.03.16-.03.22-.03h.08c.22,0,.27.11.35.49l2.35,10.99.32,1.7c.13.78.24,1.54.38,2.29.35-1.89.46-2.35.84-4l2.54-10.88c.08-.35.16-.46.38-.46l.27.03,2.62.3c.38.05.51.13.51.35,0,.05,0,.08-.05.32l-4.94,17.6c-.11.4-.19.46-.59.46h-3.16c-.46,0-.49-.03-.59-.46l-4.78-17.55c-.03-.13-.05-.24-.05-.32,0-.19.11-.24.49-.32h-.02ZM224.19,18.39c0-.49.08-.57.57-.57h4.24c1.84,0,2.08.03,2.81.16,3.43.65,5.02,3.56,5.02,9.12,0,4.59-1.11,7.37-3.43,8.56-1.08.54-1.84.67-4.4.67h-4.24c-.49,0-.57-.08-.57-.57v-17.38h0ZM210.33,36.34h-2.67c-.41,0-.54-.08-.54-.3,0-.11.03-.14.08-.35l5.32-17.41c.13-.43.16-.46.59-.46h2.81c.43,0,.46.03.59.46l5.32,17.41c.05.19.08.27.08.35,0,.22-.13.3-.54.3h-2.94c-.46,0-.51-.03-.62-.46l-1.16-4.43h-4.56l-1.16,4.43c-.11.43-.13.46-.59.46h-.01ZM216.02,103.8h-1.22v6.07c0,.43-.07.5-.5.5h-2.28c-.46,0-.5-.05-.5-.5v-15.46c0-.46.05-.5.5-.5h3.89c1.92,0,2.98.19,3.77.67,1.13.7,1.82,2.14,1.82,3.84,0,3.24-2.16,5.38-5.47,5.38h-.01ZM215.27,57.62l11.75-1.71,5.26-10.65,5.26,10.65,11.75,1.71-8.5,8.29,2.01,11.7-10.51-5.53-10.51,5.53,2.01-11.7-8.5-8.29h-.02,0ZM231.95,105.26h-6.46c.05,2.06.89,3.02,2.66,3.02.89,0,1.82-.26,2.74-.74.12-.07.24-.1.31-.1.12,0,.19.07.26.22l.6,1.44c.07.14.07.17.07.26,0,.26-.19.41-.98.74-1.06.46-2.14.67-3.31.67-1.54,0-2.74-.41-3.58-1.18-1.15-1.06-1.8-2.88-1.8-5.06,0-3.86,2.09-6.43,5.26-6.43s4.75,2.18,4.75,6.55c0,.48-.1.6-.53.6h0ZM241.72,98.9l-.74,1.94c-.05.14-.12.22-.19.22-.05,0-.1-.02-.17-.05-.34-.12-.67-.19-.96-.19-.5,0-1.1.36-1.82,1.15v7.99c0,.36-.05.41-.41.41h-2.23c-.36,0-.41-.05-.41-.41v-7.3c0-1.37-.14-2.04-.72-3.34-.02-.07-.05-.14-.05-.22,0-.1.1-.19.24-.24l1.94-.7c.13-.05.22-.07.29-.07.29,0,.65.72.91,1.87.5-.58.58-.7.82-.94.6-.6,1.37-.94,2.18-.94.72,0,1.37.26,1.37.53,0,.07-.02.17-.05.26v.03h0ZM251.45,94.05l-.43,1.7c-.05.12-.12.22-.22.22-.07,0-.14-.02-.24-.07-.53-.24-.96-.34-1.44-.34-.55,0-.94.17-1.15.5-.17.26-.19.48-.19,1.44v1.01h2.74c.29,0,.41.07.41.24,0,.02-.02.17-.05.24l-.34,1.39c-.07.26-.19.36-.46.36h-2.3v9.22c0,.36-.05.41-.41.41h-2.23c-.36,0-.41-.05-.41-.41v-9.22h-1.82c-.27,0-.41-.19-.41-.58v-1.32c0-.26.1-.34.41-.34h1.82v-1.01c0-1.63.22-2.47.79-3.19.72-.89,1.73-1.32,3.05-1.32,1.46,0,2.93.43,2.93.86,0,.29-.02.35-.05.19v.02h0ZM256.75,110.78c-3.29,0-5.23-2.35-5.23-6.34,0-1.97.46-3.46,1.39-4.58,1.03-1.22,2.21-1.75,3.94-1.75,3.14,0,5.11,2.42,5.11,6.31s-1.99,6.36-5.21,6.36ZM271.21,98.9l-.74,1.94c-.05.14-.12.22-.19.22-.05,0-.1-.02-.17-.05-.34-.12-.67-.19-.96-.19-.5,0-1.1.36-1.82,1.15v7.99c0,.36-.05.41-.41.41h-2.23c-.36,0-.41-.05-.41-.41v-7.3c0-1.37-.14-2.04-.72-3.34-.02-.07-.05-.14-.05-.22,0-.1.1-.19.24-.24l1.94-.7c.13-.05.22-.07.29-.07.29,0,.65.72.91,1.87.5-.58.58-.7.82-.94.6-.6,1.37-.94,2.18-.94.72,0,1.37.26,1.37.53,0,.07-.02.17-.05.26v.03ZM288.39,109.97c0,.36-.05.41-.41.41h-2.21c-.36,0-.41-.05-.41-.41v-7.61c0-1.34-.29-1.85-1.08-1.85-.65,0-1.2.29-2.06,1.08v8.38c0,.36-.05.41-.41.41h-2.18c-.36,0-.41-.05-.41-.41v-7.37c0-1.58-.24-2.04-1.1-2.04-.62,0-1.25.31-2.06,1.03v8.38c0,.36-.05.41-.41.41h-2.18c-.36,0-.41-.05-.41-.41v-8.06c0-1.22-.1-1.73-.43-2.59-.05-.1-.07-.19-.07-.26,0-.12.1-.24.26-.29l1.94-.65c.12-.02.19-.05.24-.05.26,0,.55.67.77,1.73,1.32-1.22,2.28-1.68,3.58-1.68s2.09.53,2.62,1.68c1.37-1.25,2.35-1.68,3.7-1.68,1.08,0,1.9.43,2.3,1.2.34.67.43,1.3.43,2.76v7.9h0ZM280.63,65.91l2.01,11.7-10.51-5.53-10.51,5.53,2.01-11.7-8.5-8.29,11.75-1.71,5.26-10.65,5.26,10.65,11.75,1.71-8.5,8.29h-.02ZM285.6,34.96c-1.54-1.75-2.35-4.56-2.35-8.15,0-3.32.67-5.61,2.13-7.31,1.16-1.38,2.81-2.13,4.64-2.13,1.43,0,2.86.49,4.08,1.38.41.3.57.49.57.65,0,.08-.03.19-.05.22l-1.11,2c-.08.16-.16.22-.27.22-.13,0-.22-.03-.81-.49-.73-.57-1.46-.84-2.19-.84-2.08,0-3.1,1.92-3.1,5.78,0,2.7.35,4.7,1.05,6.02.46.86,1.38,1.38,2.43,1.38.89,0,1.43-.22,2.43-.97.11-.05.19-.11.27-.11s.16.08.24.24l1.08,1.89c.05.08.08.16.08.24,0,.24-.16.43-.59.73-1.13.76-2.4,1.11-3.91,1.11-1.97,0-3.56-.62-4.62-1.84v-.02h0ZM300.05,109.94l-1.87.74c-.07.05-.22.07-.29.07-.22,0-.46-.46-.72-1.42-.96.98-1.82,1.37-3.07,1.37-2.21,0-3.6-1.42-3.6-3.62s1.15-3.38,3.58-3.86c.62-.12,1.37-.19,2.69-.22v-.74c0-1.37-.38-1.8-1.58-1.8-.72,0-1.63.22-2.69.62-.1.05-.19.07-.26.07-.12,0-.19-.07-.24-.24l-.5-1.44c-.02-.07-.05-.19-.05-.26,0-.5,2.18-1.1,4.1-1.1s3.19.62,3.74,1.85c.24.5.34,1.08.34,1.99v4.9c0,1.06.14,1.75.55,2.59.05.1.07.19.07.26,0,.1-.07.19-.19.24h0ZM294.97,57.62l11.75-1.71,5.26-10.65,5.26,10.65,11.75,1.71-8.5,8.29,2.01,11.7-10.51-5.53-10.51,5.53,2.01-11.7-8.5-8.29h-.02ZM312.2,109.97c0,.36-.05.41-.41.41h-2.23c-.36,0-.41-.05-.41-.41v-7.39c0-1.42-.41-2.02-1.37-2.02-.7,0-1.25.26-2.09.98v8.42c0,.36-.05.41-.41.41h-2.23c-.36,0-.41-.05-.41-.41v-8.06c0-1.03-.17-1.9-.5-2.62-.05-.1-.07-.17-.07-.24s.07-.17.19-.22l2.14-.79c.07-.02.19-.05.24-.05.29,0,.6.6.86,1.66,1.2-1.1,2.23-1.54,3.6-1.54,2.14,0,3.1,1.18,3.1,3.79v8.08h0ZM323.28,99.74l-.84,1.54c-.05.1-.14.17-.22.17s-.14-.02-.24-.1c-.89-.65-1.32-.82-2.04-.82-1.63,0-2.38,1.25-2.38,4.03,0,2.62.74,3.79,2.4,3.79.67,0,1.27-.22,1.97-.67.1-.07.19-.12.26-.12s.14.07.19.17l.58,1.46c.05.13.07.22.07.29,0,.6-1.85,1.3-3.48,1.3-3.26,0-5.16-2.23-5.16-6.1,0-4.08,2.11-6.58,5.54-6.58,1.46,0,3.41.77,3.41,1.37,0,.07-.02.17-.07.26h.01ZM333.51,105.26h-6.46c.05,2.06.89,3.02,2.66,3.02.89,0,1.82-.26,2.74-.74.12-.07.24-.1.31-.1.12,0,.19.07.26.22l.6,1.44c.07.14.07.17.07.26,0,.26-.19.41-.98.74-1.06.46-2.14.67-3.31.67-1.54,0-2.74-.41-3.58-1.18-1.15-1.06-1.8-2.88-1.8-5.06,0-3.86,2.09-6.43,5.26-6.43s4.75,2.18,4.75,6.55c0,.48-.1.6-.53.6h0ZM336.64,28.19c0,.46-.08.54-.57.54h-4.13v4.18c0,.46-.08.54-.57.54h-1.81c-.46,0-.54-.08-.54-.54v-4.18h-4.13c-.49,0-.57-.05-.57-.54v-1.7c0-.49.08-.57.57-.57h4.13v-4.18c0-.49.08-.57.54-.57h1.81c.49,0,.57.08.57.57v4.18h4.13c.49,0,.57.08.57.57v1.7ZM330.85,103.03h-3.74c.22-1.97.77-2.74,1.99-2.74s1.7.74,1.75,2.74ZM218.33,98.61c0,1.82-.74,2.47-2.86,2.47h-.67v-4.73h.94c1.94,0,2.59.55,2.59,2.26ZM229.29,103.03h-3.74c.22-1.97.77-2.74,1.99-2.74s1.7.74,1.75,2.74ZM296.76,105v2.64c-.58.62-1.18.94-1.82.94-.86,0-1.54-.72-1.54-1.66,0-1.39.96-1.92,3.36-1.92h0ZM258.72,104.47c0,2.74-.58,3.89-1.99,3.89s-1.97-1.13-1.97-3.91.58-3.91,1.94-3.91c1.44,0,2.02,1.1,2.02,3.94h0ZM170.07,159.08c0,2.59-1.83,4.53-4.81,4.53-2.08,0-5.29-1.07-5.29-1.83,0-.08.11-.25.14-.37l.62-1.61c.06-.14.11-.25.22-.25s2.28,1.24,4.03,1.24c.93,0,1.72-.39,1.72-1.41,0-1.63-2.76-1.63-4.62-2.87-.84-.56-1.66-1.55-1.66-3.18,0-2.56,1.94-4.59,4.98-4.59,1.72,0,4.39.73,4.39,1.38,0,.08-.08.25-.14.37l-.65,1.55c-.06.14-.2.25-.23.25-.08,0-1.46-.73-3.27-.73-1.07,0-1.86.39-1.86,1.35,0,1.52,2.53,1.41,4.53,2.73,1.1.73,1.89,1.8,1.89,3.43h0ZM207.55,166.66c.56,0,.59-.03.73-.56l1.42-5.41h5.58l1.42,5.41c.13.53.2.56.76.56h3.6c.5,0,.66-.1.66-.36,0-.1-.03-.2-.1-.43l-6.5-21.29c-.17-.53-.2-.56-.73-.56h-3.43c-.53,0-.56.03-.73.56l-6.5,21.29c-.07.26-.1.3-.1.43,0,.26.17.36.66.36h3.27-.01ZM211.51,151.94c.43-1.78.56-2.54.86-4.46.43,2.51.53,3.1.83,4.46l1.22,5.64h-4.22l1.32-5.64h-.01ZM184.25,167.81v-39.42h0V16.44c0-5.03-2.26-9.53-5.82-12.54-2.86-2.44-6.58-3.9-10.63-3.9H16.45C7.36,0,0,7.36,0,16.44v111.95h0v39.42c0,9.08,7.36,16.44,16.44,16.44h151.37c9.08,0,16.44-7.36,16.44-16.44ZM94.03,31.92h18.63c1.96,0,2.85.59,3.24,2.45l6.28,27.07c.98,4.31,1.67,10.4,1.67,10.4h.19s.79-6.08,1.86-10.4l6.96-27.07c.49-1.86,1.27-2.45,3.24-2.45h15.4c1.76,0,2.65.88,2.65,2.65,0,.59-.29,1.37-.49,2.06l-20.89,62.08c-.59,1.86-1.37,2.45-3.34,2.45h-13.34c-1.96,0-2.75-.59-3.34-2.45l-20.89-62.08c-.2-.69-.49-1.47-.49-2.06,0-1.77.88-2.65,2.65-2.65h0ZM30.59,96.45l20.3-62.08c.59-1.86,1.37-2.45,3.34-2.45h17.85c1.96,0,2.75.59,3.34,2.45l20.3,62.08c.19.69.49,1.47.49,2.06,0,1.76-.88,2.65-2.65,2.65h-18.05c-1.96,0-2.85-.59-3.24-2.45l-1.77-7.65h-17.95l-1.86,7.65c-.49,1.86-1.27,2.45-3.24,2.45h-14.71c-1.76,0-2.65-.88-2.65-2.65,0-.59.29-1.37.49-2.06h.01ZM167.81,181.25H16.44c-7.41,0-13.44-6.03-13.44-13.44v-36.42h178.25v36.42c0,7.41-6.03,13.44-13.44,13.44ZM257.18,150.52c0-2.71-.92-4.59-2.81-5.64-1.16-.63-2.41-.86-4.88-.86h-5.38c-.63,0-.69.07-.69.69v21.16c0,.73.07.79.69.79h3.04c.59,0,.69-.1.69-.69v-8.58h1.75l4.65,9.41c.2.36.3.46.46.46.07,0,.2-.03.4-.1l2.94-.83c.4-.1.53-.23.53-.4,0-.13-.07-.33-.17-.5l-4.92-8.61c2.61-1.39,3.7-3.27,3.7-6.3h0ZM248.76,153.88h-.92v-6.5h1.29c2.67,0,3.56.76,3.56,3.1,0,2.51-1.02,3.4-3.93,3.4ZM274.44,162.96h7.72c.59,0,.69.1.69.69v2.31c0,.59-.1.69-.69.69h-11.88c-.33,0-.46-.13-.46-.46v-.26c0-2.74.2-3.99,1.02-5.48.96-1.75,1.78-2.54,5.28-5.25,2.24-1.72,2.97-2.9,2.97-4.75s-.99-2.77-2.71-2.77c-1.62,0-2.44.73-3.33,2.81-.13.33-.3.5-.5.5-.1,0-.26-.03-.36-.07l-2.11-.79c-.26-.1-.4-.26-.4-.5,0-.76.86-2.48,1.75-3.47,1.25-1.42,3.04-2.15,5.35-2.15,3.96,0,6.27,2.31,6.27,6.3,0,2.11-.63,3.83-1.95,5.28-.99,1.09-1.09,1.12-4.32,3.63-1.72,1.32-2.31,2.34-2.34,3.73h0ZM145.29,149.56c-.03.2-.11.42-.14.48l-4.59,12.98c-.11.31-.14.37-.53.37h-2.31c-.39,0-.42-.06-.54-.37l-4.48-12.98c-.03-.06-.11-.28-.14-.48,0-.22.2-.25.62-.31l2.34-.25c.08,0,.39-.03.45-.03.23,0,.31.28.39.56l1.72,6.33c.31,1.13.73,3.04.9,4.08h.06c.17-1.01.62-2.98.96-4.08l1.91-6.33c.08-.31.17-.56.39-.56.06,0,.37.03.45.03l1.91.25c.42.06.62.08.62.31h0ZM314.42,33.4h-.94v-12.63h.94c1.3,0,1.78.11,2.4.54,1.21.81,1.7,2.48,1.7,5.97,0,3.02-.38,4.62-1.3,5.43-.57.51-1.35.7-2.81.7h0ZM259.78,28.92h-3.46l1.08-4.62c.35-1.46.46-2.08.7-3.64.35,2.05.43,2.54.67,3.64l1,4.62h0ZM229.29,166.66c.59,0,.69-.1.69-.69v-8.35h1.68c4.55,0,7.52-2.94,7.52-7.39,0-2.34-.96-4.32-2.51-5.28-1.09-.66-2.54-.92-5.18-.92h-5.35c-.63,0-.69.07-.69.69v21.26c0,.63.07.69.69.69h3.15ZM229.99,147.38h1.29c2.67,0,3.56.76,3.56,3.1,0,2.51-1.02,3.4-3.93,3.4h-.92v-6.5Z" fill="#949ca1;"></path></svg>