<svg xmlns="http://www.w3.org/2000/svg" viewBox="0 0 360 184.25" fill="white"><path d="M178.44,3.9c-2.86-2.44-6.58-3.9-10.63-3.9H16.45C7.36,0,0,7.36,0,16.44v111.95h0v39.42c0,9.08,7.36,16.44,16.44,16.44h151.37c9.08,0,16.44-7.36,16.44-16.44v-39.42h0V16.44c0-5.03-2.26-9.53-5.82-12.54h.01ZM94.03,31.92h18.63c1.96,0,2.85.59,3.24,2.45l6.28,27.07c.98,4.31,1.67,10.4,1.67,10.4h.19s.79-6.08,1.86-10.4l6.96-27.07c.49-1.86,1.27-2.45,3.24-2.45h15.4c1.76,0,2.65.88,2.65,2.65,0,.59-.29,1.37-.49,2.06l-20.89,62.08c-.59,1.86-1.37,2.45-3.34,2.45h-13.34c-1.96,0-2.75-.59-3.34-2.45l-20.89-62.08c-.2-.69-.49-1.47-.49-2.06,0-1.77.88-2.65,2.65-2.65h0ZM30.59,96.45l20.3-62.08c.59-1.86,1.37-2.45,3.34-2.45h17.85c1.96,0,2.75.59,3.34,2.45l20.3,62.08c.19.69.49,1.47.49,2.06,0,1.76-.88,2.65-2.65,2.65h-18.05c-1.96,0-2.85-.59-3.24-2.45l-1.77-7.65h-17.95l-1.86,7.65c-.49,1.86-1.27,2.45-3.24,2.45h-14.71c-1.76,0-2.65-.88-2.65-2.65,0-.59.29-1.37.49-2.06h.01ZM181.25,167.81c0,7.41-6.03,13.44-13.44,13.44H16.44c-7.41,0-13.44-6.03-13.44-13.44v-36.42h178.25v36.42ZM67.56,78.21h-11.97l3.04-12.65c1.67-6.96,3.04-16.28,3.04-16.28h.2s1.27,9.32,2.84,16.28l2.85,12.65ZM24.31,161.83c.03.08.08.2.08.28,0,.68-2.28,1.49-3.97,1.49-3.91,0-6.25-2.39-6.25-7.15s2.39-7.71,6.56-7.71c1.52,0,4,.84,4,1.72,0,.08-.06.17-.08.25l-1.04,1.83c-.06.06-.11.14-.2.14-.28,0-1.21-1.13-2.67-1.13-1.91,0-2.76,1.46-2.76,4.7s.73,4.53,2.9,4.53c1.44,0,2-.96,2.51-.96.08,0,.14.06.2.14l.73,1.86h-.01ZM32.31,163.61c-3.8,0-6.11-2.9-6.11-7.43s2.31-7.43,6.11-7.43,6.11,2.9,6.11,7.43-2.31,7.43-6.11,7.43ZM34.62,156.18c0-2.62-.37-4.62-2.31-4.62s-2.31,2-2.31,4.62.34,4.62,2.31,4.62,2.31-1.97,2.31-4.62ZM59.7,162.74c0,.31-.06.39-.39.39h-2.79c-.34,0-.39-.08-.39-.39v-8.67c0-1.07-.11-2.37-1.18-2.37-1.18,0-2.11.82-2.48,1.15v9.88c0,.31-.06.39-.39.39h-2.79c-.34,0-.39-.08-.39-.39v-8.67c0-1.07-.11-2.37-1.18-2.37-1.18,0-2.11.82-2.48,1.15v9.88c0,.31-.06.39-.39.39h-2.79c-.34,0-.39-.08-.39-.39v-8.5c0-3.97-.54-3.74-.54-4.39,0-.14.11-.25.31-.31l2.14-.7c.17-.06.31-.08.42-.08.37,0,.59.62.9,1.94.84-.73,2.08-1.94,4.31-1.94,1.21,0,2.53.76,2.87,1.94.84-.73,2.06-1.94,4.36-1.94,2.65,0,3.27,2,3.27,4.45v9.54h-.01ZM67.25,168.03c0,.39-.2.45-.54.51l-2.37.48c-.08.03-.34.08-.48.08s-.2-.11-.2-.59v-14.27c0-3.97-.53-3.74-.53-4.39,0-.14.11-.25.31-.31l2.14-.7c.17-.06.31-.08.42-.08.37,0,.56.54.87,1.46.62-.59,1.72-1.46,3.6-1.46,3.13,0,4.87,2.45,4.87,7.18s-1.52,7.69-5.18,7.69c-1.63,0-2.34-.42-2.93-.73v5.15l.02-.02ZM67.25,160.26c.51.28.96.53,2.06.53,1.97,0,2.48-1.41,2.48-4.73,0-2.9-.53-4.5-2.28-4.5-1.18,0-1.86.7-2.25,1.07v7.63h-.01ZM86.71,163.5c-.11.03-.25.11-.37.11-.25,0-.68-.99-.82-1.69-.56.56-1.55,1.69-3.66,1.69-2.59,0-4.22-1.69-4.22-4.34,0-4.76,5.12-4.76,7.35-4.76v-.87c0-1.27-.23-2.08-2-2.08-1.58,0-3.13.84-3.49.84-.14,0-.25-.17-.28-.28l-.56-1.72c-.06-.11-.08-.23-.08-.34,0-.65,2.79-1.32,4.96-1.32,3.52,0,4.84,1.61,4.84,4.53v5.43c0,2.73.73,3.1.73,3.66,0,.11-.11.2-.25.25l-2.14.87v.02ZM84.99,156.82c-.7,0-3.97-.23-3.97,2.25,0,1.1.79,1.91,1.86,1.91s1.77-.73,2.11-1.07v-3.1h0ZM95.74,162.74c0,.31-.06.39-.39.39h-2.79c-.34,0-.39-.08-.39-.39v-8.5c0-3.1-.73-3.6-.73-4.25,0-.11.11-.2.25-.25l2.14-.87c.11-.03.25-.11.37-.11.34,0,.9,1.27,1.04,2.22.53-.65,1.58-2.22,3.49-2.22.82,0,1.63.28,1.63.65,0,.11-.03.23-.06.28l-.87,2.37c-.03.08-.11.25-.23.25-.17,0-.68-.31-1.32-.31-.87,0-1.77.96-2.14,1.35v9.4h0ZM109.65,163.5c-.11.03-.25.11-.37.11-.25,0-.68-.99-.82-1.69-.56.56-1.55,1.69-3.66,1.69-2.59,0-4.22-1.69-4.22-4.34,0-4.76,5.12-4.76,7.35-4.76v-.87c0-1.27-.23-2.08-2-2.08-1.58,0-3.13.84-3.49.84-.14,0-.25-.17-.28-.28l-.56-1.72c-.06-.11-.08-.23-.08-.34,0-.65,2.79-1.32,4.96-1.32,3.52,0,4.84,1.61,4.84,4.53v5.43c0,2.73.73,3.1.73,3.66,0,.11-.11.2-.25.25l-2.14.87v.02ZM107.93,156.82c-.7,0-3.97-.23-3.97,2.25,0,1.1.79,1.91,1.86,1.91s1.77-.73,2.11-1.07v-3.1h0ZM123.45,162.31c.03.14.06.14.06.23,0,.53-2.06,1.07-3.97,1.07-3.63,0-3.63-2.84-3.63-5.43v-6.34h-2c-.34,0-.39-.08-.39-.39v-1.83c0-.31.06-.39.39-.39h2v-3.55c0-.37.06-.45.45-.51l2.48-.34c.08,0,.2-.03.37-.03.25,0,.28.14.28.48v3.94h3.21c.25,0,.48,0,.48.31,0,.06,0,.11-.03.23l-.37,1.66c-.08.39-.17.42-.51.42h-2.79v6.81c0,.9,0,1.72.96,1.72,1.13,0,1.83-.53,2.22-.53.11,0,.2.06.23.17l.56,2.31h0ZM130.15,162.74c0,.31-.06.39-.39.39h-2.79c-.34,0-.39-.08-.39-.39v-10.9h-2.17c-.34,0-.39-.08-.39-.39v-1.83c0-.31.06-.39.39-.39h5.35c.34,0,.39.08.39.39v13.12ZM128.35,147.39c-1.29,0-2.34-1.04-2.34-2.34s1.04-2.31,2.34-2.31,2.31,1.01,2.31,2.31-1.04,2.34-2.31,2.34ZM140.56,163.02c-.11.31-.14.37-.53.37h-2.31c-.39,0-.42-.06-.54-.37l-4.48-12.98c-.03-.06-.11-.28-.14-.48,0-.22.2-.25.62-.31l2.34-.25c.08,0,.39-.03.45-.03.23,0,.31.28.39.56l1.72,6.33c.31,1.13.73,3.04.9,4.08h.06c.17-1.01.62-2.98.96-4.08l1.91-6.33c.08-.31.17-.56.39-.56.06,0,.37.03.45.03l1.91.25c.42.06.62.08.62.31-.03.2-.11.42-.14.48l-4.59,12.98h0ZM157.37,161.64c.06.08.08.2.08.31,0,.73-2.82,1.66-5.04,1.66-3.72,0-6.31-2.11-6.31-7.29,0-4.48,2.39-7.57,6.17-7.57,4.79,0,5.63,4.28,5.63,7.69,0,.54-.11.7-.65.7h-7.57c0,1.58.45,3.52,3.1,3.52,2.03,0,3.18-.93,3.58-.93.14,0,.25.11.31.23l.7,1.69h0ZM154.11,154.51c0-1.15-.08-3.15-2.03-3.15-2.2,0-2.31,2.37-2.39,3.15h4.42ZM169,152.04c-.06.14-.2.25-.23.25-.08,0-1.46-.73-3.27-.73-1.07,0-1.86.39-1.86,1.35,0,1.52,2.53,1.41,4.53,2.73,1.1.73,1.89,1.8,1.89,3.43,0,2.59-1.83,4.53-4.81,4.53-2.08,0-5.29-1.07-5.29-1.83,0-.08.11-.25.14-.37l.62-1.61c.06-.14.11-.25.22-.25s2.28,1.24,4.03,1.24c.93,0,1.72-.39,1.72-1.41,0-1.63-2.76-1.63-4.62-2.87-.84-.56-1.66-1.55-1.66-3.18,0-2.56,1.94-4.59,4.98-4.59,1.72,0,4.39.73,4.39,1.38,0,.08-.08.25-.14.37l-.65,1.55h0ZM221.37,36.34h-2.94c-.46,0-.51-.03-.62-.46l-1.16-4.43h-4.56l-1.16,4.43c-.11.43-.13.46-.59.46h-2.67c-.41,0-.54-.08-.54-.3,0-.11.03-.14.08-.35l5.32-17.41c.13-.43.16-.46.59-.46h2.81c.43,0,.46.03.59.46l5.32,17.41c.05.19.08.27.08.35,0,.22-.13.3-.54.3h-.01ZM214.27,20.66c-.24,1.57-.35,2.19-.7,3.64l-1.08,4.62h3.46l-1-4.62c-.24-1.11-.32-1.59-.67-3.64h-.01ZM233.39,35.66c-1.08.54-1.84.67-4.4.67h-4.24c-.49,0-.57-.08-.57-.57v-17.38c0-.49.08-.57.57-.57h4.24c1.84,0,2.08.03,2.81.16,3.43.65,5.02,3.56,5.02,9.12,0,4.59-1.11,7.37-3.43,8.56h0ZM231.23,21.3c-.62-.43-1.11-.54-2.4-.54h-.94v12.63h.94c1.46,0,2.24-.19,2.81-.7.92-.81,1.3-2.4,1.3-5.43,0-3.48-.49-5.16-1.7-5.97h-.01ZM251.8,18.66l-4.94,17.6c-.11.4-.19.46-.59.46h-3.16c-.46,0-.49-.03-.59-.46l-4.78-17.55c-.03-.13-.05-.24-.05-.32,0-.19.11-.24.49-.32l2.83-.51c.11-.03.16-.03.22-.03h.08c.22,0,.27.11.35.49l2.35,10.99.32,1.7c.13.78.24,1.54.38,2.29.35-1.89.46-2.35.84-4l2.54-10.88c.08-.35.16-.46.38-.46l.27.03,2.62.3c.38.05.51.13.51.35,0,.05,0,.08-.05.32h-.02ZM265.2,36.34h-2.94c-.46,0-.51-.03-.62-.46l-1.16-4.43h-4.56l-1.16,4.43c-.11.43-.13.46-.59.46h-2.67c-.41,0-.54-.08-.54-.3,0-.11.03-.14.08-.35l5.32-17.41c.13-.43.16-.46.59-.46h2.81c.43,0,.46.03.59.46l5.32,17.41c.05.19.08.27.08.35,0,.22-.13.3-.54.3h0ZM258.1,20.66c-.24,1.57-.35,2.19-.7,3.64l-1.08,4.62h3.46l-1-4.62c-.24-1.11-.32-1.59-.67-3.64h0ZM279.85,36.34h-1.73c-.49,0-.57-.05-.81-.51l-4.64-8.75c-.89-1.67-1.27-2.54-1.73-3.83.05,1.26.08,2.36.08,3.29v9.23c0,.49-.08.57-.57.57h-2.03c-.51,0-.57-.05-.57-.57v-17.38c0-.51.05-.57.57-.57h2.11c.51,0,.54.03.78.46l4.26,7.94c.65,1.19,1.27,2.75,1.73,4.16-.05-2.05-.05-2.38-.05-3.4v-8.58c0-.49.08-.57.57-.57h2.02c.51,0,.57.05.57.57v17.38c0,.51-.05.57-.57.57h.01ZM294.13,35.69c-1.13.76-2.4,1.11-3.91,1.11-1.97,0-3.56-.62-4.62-1.84-1.54-1.75-2.35-4.56-2.35-8.15,0-3.32.67-5.61,2.13-7.31,1.16-1.38,2.81-2.13,4.64-2.13,1.43,0,2.86.49,4.08,1.38.41.3.57.49.57.65,0,.08-.03.19-.05.22l-1.11,2c-.08.16-.16.22-.27.22-.13,0-.22-.03-.81-.49-.73-.57-1.46-.84-2.19-.84-2.08,0-3.1,1.92-3.1,5.78,0,2.7.35,4.7,1.05,6.02.46.86,1.38,1.38,2.43,1.38.89,0,1.43-.22,2.43-.97.11-.05.19-.11.27-.11s.16.08.24.24l1.08,1.89c.05.08.08.16.08.24,0,.24-.16.43-.59.73v-.02ZM307.21,18.47l-.54,1.84c-.11.35-.22.46-.59.46h-5.24v4.43h4.51c.49,0,.57.08.57.57v1.81c0,.49-.08.57-.57.57h-4.51v5.26h5.67c.49,0,.57.08.57.57v1.81c0,.51-.05.57-.57.57h-8.8c-.51,0-.57-.05-.57-.57v-17.38c0-.51.05-.57.57-.57h9.02c.4,0,.54.08.54.3,0,.08-.03.22-.05.35v-.02ZM318.99,35.66c-1.08.54-1.84.67-4.4.67h-4.24c-.49,0-.57-.08-.57-.57v-17.38c0-.49.08-.57.57-.57h4.24c1.84,0,2.08.03,2.81.16,3.43.65,5.02,3.56,5.02,9.12,0,4.59-1.11,7.37-3.43,8.56h0ZM316.83,21.3c-.62-.43-1.11-.54-2.4-.54h-.94v12.63h.94c1.46,0,2.24-.19,2.81-.7.92-.81,1.3-2.4,1.3-5.43,0-3.48-.49-5.16-1.7-5.97h0ZM329.57,21.17h1.81c.49,0,.57.08.57.57v4.18h4.13c.49,0,.57.08.57.57v1.7c0,.46-.08.54-.57.54h-4.13v4.18c0,.46-.08.54-.57.54h-1.81c-.46,0-.54-.08-.54-.54v-4.18h-4.13c-.49,0-.57-.05-.57-.54v-1.7c0-.49.08-.57.57-.57h4.13v-4.18c0-.49.08-.57.54-.57ZM249.95,100.1c0,.19-.1.27-.44.27h-1.89c-.38,0-.44-.06-.44-.42l-.15-7.41v-.71c0-.46,0-1.11.02-2.31-.31,1.39-.57,2.37-.78,3.04l-1.34,4.3c-.1.31-.13.34-.48.34h-1.28c-.34,0-.36-.02-.46-.36l-1.18-4.09c-.13-.44-.55-2.14-.78-3.23l.02,2.96v.34l-.17,7.14c0,.36-.06.42-.44.42h-1.7c-.31,0-.42-.08-.42-.31v-.13l.61-13.54c.02-.36.08-.42.44-.42h2.08c.31,0,.36.02.46.34l1.68,5.31c.13.38.38,1.49.57,2.41.36-1.34.48-1.74.71-2.44l1.78-5.29c.1-.31.13-.34.46-.34h1.97c.38,0,.42.06.44.42l.67,13.16c.02.31.02.42.02.55h.02ZM260.19,100l-1.64.65c-.06.04-.19.06-.25.06-.19,0-.4-.4-.63-1.24-.84.86-1.6,1.2-2.69,1.2-1.93,0-3.15-1.24-3.15-3.17s1.01-2.96,3.13-3.38c.55-.1,1.2-.17,2.35-.19v-.65c0-1.2-.34-1.57-1.39-1.57-.63,0-1.43.19-2.35.55-.08.04-.17.06-.23.06-.1,0-.17-.06-.21-.21l-.44-1.26c-.02-.06-.04-.17-.04-.23,0-.44,1.91-.97,3.59-.97s2.79.55,3.28,1.62c.21.44.29.94.29,1.74v4.28c0,.92.13,1.53.48,2.27.04.08.06.17.06.23,0,.08-.06.17-.17.21h.01ZM254.37,97.35c0,.82.59,1.45,1.34,1.45.57,0,1.09-.27,1.6-.82v-2.31c-2.1,0-2.94.46-2.94,1.68ZM264.92,100.73c-1.22,0-2.06-.52-2.39-1.51-.17-.48-.19-.73-.19-2.56v-10.67c0-.23.1-.36.31-.4l1.89-.38c.14-.03.22-.04.25-.04.15,0,.21.1.21.36v10.94c0,1.18,0,1.22.04,1.39.08.29.23.42.52.42.23,0,.42-.04.69-.13.06-.02.13-.02.15-.02.08,0,.15.04.17.13l.42,1.72.02.08s.02.06.02.08c0,.27-1.11.59-2.12.59h.01ZM280.27,90.57l-2.9,9.68c-.08.27-.1.29-.4.29h-1.74c-.29,0-.31-.02-.38-.34l-.99-5.31c-.04-.23-.06-.29-.15-1.07l-.08-.78-.06-.5c-.17,1.15-.17,1.43-.38,2.35l-1.24,5.33c-.06.29-.1.31-.38.31h-1.72c-.29,0-.29-.02-.38-.31l-2.54-9.66c-.03-.13-.04-.2-.04-.23,0-.13.08-.17.31-.21l1.85-.27s.13-.02.17-.02c.15,0,.21.06.25.29l.99,4.83c.1.52.21,1.22.44,3.3.13-1.41.25-2.46.38-3.02l1.05-4.91c.06-.29.08-.31.38-.31h1.89c.27,0,.31.04.38.31l.94,4.72c.1.48.31,2.1.42,3.21.21-2.06.31-2.86.46-3.49l1.07-4.64c.06-.23.1-.29.23-.29.04,0,.17,0,.19.02l1.72.27c.23.04.31.1.31.23,0,.04-.02.04-.06.21h0ZM289.47,100l-1.64.65c-.06.04-.19.06-.25.06-.19,0-.4-.4-.63-1.24-.84.86-1.6,1.2-2.69,1.2-1.93,0-3.15-1.24-3.15-3.17s1.01-2.96,3.13-3.38c.55-.1,1.2-.17,2.35-.19v-.65c0-1.2-.34-1.57-1.39-1.57-.63,0-1.43.19-2.35.55-.08.04-.17.06-.23.06-.1,0-.17-.06-.21-.21l-.44-1.26c-.02-.06-.04-.17-.04-.23,0-.44,1.91-.97,3.59-.97s2.79.55,3.28,1.62c.21.44.29.94.29,1.74v4.28c0,.92.13,1.53.48,2.27.04.08.06.17.06.23,0,.08-.06.17-.17.21h.01ZM283.65,97.35c0,.82.59,1.45,1.34,1.45.57,0,1.09-.27,1.6-.82v-2.31c-2.1,0-2.94.46-2.94,1.68ZM297.87,90.34l-.65,1.7c-.04.13-.1.19-.17.19-.04,0-.08-.02-.15-.04-.29-.1-.59-.17-.84-.17-.44,0-.97.31-1.6,1.01v6.99c0,.31-.04.36-.36.36h-1.95c-.31,0-.36-.04-.36-.36v-6.38c0-1.2-.13-1.78-.63-2.92-.02-.06-.04-.13-.04-.19,0-.08.08-.17.21-.21l1.7-.61c.11-.04.2-.06.25-.06.25,0,.57.63.8,1.64.44-.5.5-.61.71-.82.52-.52,1.2-.82,1.91-.82.63,0,1.2.23,1.2.46,0,.06-.02.15-.04.23h.01ZM306.54,95.9h-5.65c.04,1.81.78,2.65,2.33,2.65.78,0,1.6-.23,2.39-.65.1-.06.21-.08.27-.08.1,0,.17.06.23.19l.52,1.26c.06.13.06.15.06.23,0,.23-.17.36-.86.65-.92.4-1.87.59-2.9.59-1.34,0-2.39-.36-3.13-1.03-1.01-.92-1.57-2.52-1.57-4.43,0-3.38,1.83-5.63,4.6-5.63s4.16,1.91,4.16,5.73c0,.42-.08.52-.46.52h0ZM302.67,91.56c-1.07,0-1.55.67-1.74,2.39h3.28c-.04-1.74-.46-2.39-1.53-2.39h-.01ZM231.96,112.62h-1.07v5.31c0,.38-.06.44-.44.44h-1.99c-.4,0-.44-.04-.44-.44v-13.52c0-.4.04-.44.44-.44h3.4c1.68,0,2.6.17,3.3.59.99.61,1.6,1.87,1.6,3.36,0,2.83-1.89,4.7-4.79,4.7h0ZM231.71,106.11h-.82v4.14h.59c1.85,0,2.5-.57,2.5-2.16,0-1.49-.57-1.97-2.27-1.97h0ZM244.92,108.34l-.65,1.7c-.04.13-.1.19-.17.19-.04,0-.08-.02-.15-.04-.29-.1-.59-.17-.84-.17-.44,0-.97.31-1.6,1.01v6.99c0,.31-.04.36-.36.36h-1.95c-.31,0-.36-.04-.36-.36v-6.38c0-1.2-.13-1.78-.63-2.92-.02-.06-.04-.13-.04-.19,0-.08.08-.17.21-.21l1.7-.61c.11-.04.2-.06.25-.06.25,0,.57.63.8,1.64.44-.5.5-.61.71-.82.52-.52,1.2-.82,1.91-.82.63,0,1.2.23,1.2.46,0,.06-.02.15-.04.23h0ZM249.9,118.73c-2.88,0-4.58-2.06-4.58-5.54,0-1.72.4-3.02,1.22-4.01.9-1.07,1.93-1.53,3.44-1.53,2.75,0,4.47,2.12,4.47,5.52s-1.74,5.56-4.56,5.56h0ZM249.86,109.77c-1.2,0-1.7,1.01-1.7,3.42s.5,3.42,1.72,3.42,1.74-1.01,1.74-3.4-.5-3.44-1.76-3.44h0ZM262.14,118.38c-.71.23-1.43.36-2.12.36-1.09,0-1.89-.36-2.37-1.07-.36-.52-.46-1.05-.46-2.23v-5.48h-1.45c-.31,0-.36-.04-.36-.36v-1.24c0-.31.04-.36.36-.36h1.45v-2.65c0-.29.04-.34.34-.38l1.93-.27h.19c.15,0,.21.08.21.34v2.96h2.39c.27,0,.36.04.36.21,0,.06,0,.13-.02.19l-.27,1.24c-.06.25-.13.31-.38.31h-2.08v5.1c0,1.11.15,1.34.78,1.34.42,0,.61-.04,1.39-.36.06-.02.13-.04.19-.04.1,0,.17.08.21.21l.34,1.47c.04.15.04.17.04.23,0,.21-.13.29-.65.46l-.02.02ZM271.81,113.9h-5.65c.04,1.81.78,2.65,2.33,2.65.78,0,1.6-.23,2.39-.65.1-.06.21-.08.27-.08.1,0,.17.06.23.19l.52,1.26c.06.13.06.15.06.23,0,.23-.17.36-.86.65-.92.4-1.87.59-2.9.59-1.34,0-2.39-.36-3.13-1.03-1.01-.92-1.57-2.52-1.57-4.43,0-3.38,1.83-5.63,4.6-5.63s4.16,1.91,4.16,5.73c0,.42-.08.52-.46.52h0ZM267.95,109.56c-1.07,0-1.55.67-1.74,2.39h3.28c-.04-1.74-.46-2.39-1.53-2.39h-.01ZM281.46,109.07l-.73,1.34c-.04.08-.13.15-.19.15s-.13-.02-.21-.08c-.78-.57-1.15-.71-1.78-.71-1.43,0-2.08,1.09-2.08,3.53,0,2.29.65,3.32,2.1,3.32.59,0,1.11-.19,1.72-.59.08-.06.17-.1.23-.1s.13.06.17.15l.5,1.28c.04.11.06.2.06.25,0,.52-1.62,1.13-3.04,1.13-2.86,0-4.51-1.95-4.51-5.33,0-3.57,1.85-5.75,4.85-5.75,1.28,0,2.98.67,2.98,1.2,0,.06-.02.15-.06.23v-.02ZM289.16,118.38c-.71.23-1.43.36-2.12.36-1.09,0-1.89-.36-2.37-1.07-.36-.52-.46-1.05-.46-2.23v-5.48h-1.45c-.31,0-.36-.04-.36-.36v-1.24c0-.31.04-.36.36-.36h1.45v-2.65c0-.29.04-.34.34-.38l1.93-.27h.19c.15,0,.21.08.21.34v2.96h2.39c.27,0,.36.04.36.21,0,.06,0,.13-.02.19l-.27,1.24c-.06.25-.13.31-.38.31h-2.08v5.1c0,1.11.15,1.34.78,1.34.42,0,.61-.04,1.39-.36.06-.02.13-.04.19-.04.1,0,.17.08.21.21l.34,1.47c.04.15.04.17.04.23,0,.21-.13.29-.65.46l-.02.02ZM294.77,118.38h-1.95c-.31,0-.36-.04-.36-.36v-8.06h-1.6c-.31,0-.36-.04-.36-.36v-1.24c0-.31.04-.36.36-.36h3.91c.31,0,.36.04.36.36v9.66c0,.31-.04.36-.36.36ZM293.72,106.62c-.94,0-1.7-.76-1.7-1.72s.78-1.68,1.72-1.68,1.68.78,1.68,1.7-.76,1.7-1.7,1.7h0ZM301.74,118.73c-2.88,0-4.58-2.06-4.58-5.54,0-1.72.4-3.02,1.22-4.01.9-1.07,1.93-1.53,3.44-1.53,2.75,0,4.47,2.12,4.47,5.52s-1.74,5.56-4.56,5.56h0ZM301.7,109.77c-1.2,0-1.7,1.01-1.7,3.42s.5,3.42,1.72,3.42,1.74-1.01,1.74-3.4-.5-3.44-1.76-3.44h0ZM310.61,118.38h-1.95c-.31,0-.36-.04-.36-.36v-7.05c0-.9-.15-1.66-.44-2.29-.04-.08-.06-.15-.06-.21s.06-.15.17-.19l1.87-.69c.06-.02.17-.04.21-.04.25,0,.52.52.76,1.45,1.05-.97,1.95-1.34,3.15-1.34,1.87,0,2.71,1.03,2.71,3.32v7.05c0,.31-.04.36-.36.36h-1.95c-.31,0-.36-.04-.36-.36v-6.47c0-1.24-.36-1.76-1.2-1.76-.61,0-1.09.23-1.83.86v7.37c0,.31-.04.36-.36.36h0ZM213.62,167.12c-2.67,0-6.9-1.22-6.9-1.98,0-.07.03-.23.07-.36l1.09-2.84c.07-.2.17-.3.3-.3.07,0,.17.03.3.1,1.98,1.09,3.6,1.62,5.05,1.62,1.88,0,2.97-.99,2.97-2.74,0-.76-.26-1.55-.69-2.01-.56-.63-.99-.89-3.76-2.28-3.96-1.98-5.15-3.47-5.15-6.4,0-3.89,2.81-6.37,7.23-6.37,2.61,0,6.3,1.22,6.3,2.08,0,.05-.03.13-.1.26l-1.19,2.51c-.07.13-.2.23-.3.23s-.1,0-1.29-.59c-1.09-.56-2.24-.86-3.3-.86-1.85,0-3,.92-3,2.41,0,.83.4,1.49,1.29,2.08.46.3.56.36,3.47,1.82,3.4,1.72,4.82,3.7,4.82,6.77,0,4.09-2.9,6.86-7.2,6.86h-.01ZM237.78,144.81l-.66,2.24c-.13.43-.26.56-.73.56h-6.4v5.41h5.51c.59,0,.69.1.69.69v2.21c0,.59-.1.69-.69.69h-5.51v6.44h6.93c.59,0,.69.1.69.69v2.21c0,.63-.07.69-.69.69h-10.76c-.63,0-.69-.07-.69-.69v-21.26c0-.63.07-.69.69-.69h11.02c.5,0,.66.1.66.36,0,.1-.03.26-.07.43v.02ZM248.4,157.61h-1.68v8.35c0,.59-.1.69-.69.69h-3.14c-.63,0-.69-.07-.69-.69v-21.26c0-.63.07-.69.69-.69h5.35c2.64,0,4.09.26,5.18.92,1.55.96,2.51,2.94,2.51,5.28,0,4.46-2.97,7.39-7.52,7.39h0ZM248,147.38h-1.29v6.5h.92c2.9,0,3.93-.89,3.93-3.4,0-2.34-.89-3.1-3.56-3.1ZM278.66,155.6c-.99,1.09-1.09,1.12-4.32,3.63-1.72,1.32-2.31,2.34-2.34,3.73h7.72c.59,0,.69.1.69.69v2.31c0,.59-.1.69-.69.69h-11.88c-.33,0-.46-.13-.46-.46v-.26c0-2.74.2-3.99,1.02-5.48.96-1.75,1.78-2.54,5.28-5.25,2.24-1.72,2.97-2.9,2.97-4.75s-.99-2.77-2.71-2.77c-1.62,0-2.44.73-3.33,2.81-.13.33-.3.5-.5.5-.1,0-.26-.03-.36-.07l-2.11-.79c-.26-.1-.4-.26-.4-.5,0-.76.86-2.48,1.75-3.47,1.25-1.42,3.04-2.15,5.35-2.15,3.96,0,6.27,2.31,6.27,6.3,0,2.11-.63,3.83-1.95,5.28h0ZM298.1,164.58c-1.35,1.72-3.37,2.64-5.84,2.64-4.98,0-7.72-4.03-7.72-11.42,0-4.39.83-7.46,2.54-9.37,1.32-1.52,3.4-2.41,5.68-2.41,1.95,0,3.8.83,5.05,2.28,1.72,1.98,2.41,4.59,2.41,9.04,0,4.72-.59,7.26-2.11,9.24h-.01ZM295.16,149.33c-.53-1.16-1.45-1.78-2.74-1.78-2.48,0-3.63,2.57-3.63,8.12s1.09,8.02,3.6,8.02c1.29,0,2.31-.69,2.87-1.95.5-1.16.69-2.57.69-5.48,0-3.83-.2-5.58-.79-6.93h0ZM315.75,155.6c-.99,1.09-1.09,1.12-4.32,3.63-1.72,1.32-2.31,2.34-2.34,3.73h7.72c.59,0,.69.1.69.69v2.31c0,.59-.1.69-.69.69h-11.88c-.33,0-.46-.13-.46-.46v-.26c0-2.74.2-3.99,1.02-5.48.96-1.75,1.78-2.54,5.28-5.25,2.24-1.72,2.97-2.9,2.97-4.75s-.99-2.77-2.71-2.77c-1.62,0-2.44.73-3.33,2.81-.13.33-.3.5-.5.5-.1,0-.26-.03-.36-.07l-2.11-.79c-.26-.1-.4-.26-.4-.5,0-.76.86-2.48,1.75-3.47,1.25-1.42,3.04-2.15,5.35-2.15,3.96,0,6.27,2.31,6.27,6.3,0,2.11-.63,3.83-1.95,5.28h0ZM321.59,161.64v-3.47l8.22-13.73c.2-.33.3-.43.43-.43.1,0,.23.03.46.13l1.98.83c.36.17.5.26.5.46,0,.1-.07.26-.2.46l-7.69,13.07h5.15l.43-5.31c.03-.56.13-.63.69-.63h2.24c.63,0,.69.07.69.69v5.35h1.88c.63,0,.69.07.69.79v1.78c0,.56-.1.66-.69.66h-1.88v4.29c0,.59-.07.66-.69.66h-2.74c-.63,0-.69-.07-.69-.66v-4.29h-8.09c-.63,0-.69-.07-.69-.66h0ZM343.56,0h-165.4c5.46,3.44,9.1,9.52,9.1,16.44v114.95h169.74v36.42c0,7.41-6.03,13.44-13.44,13.44h-161.72c-1.1,1.15-2.33,2.16-3.68,3h165.4c9.08,0,16.44-7.36,16.44-16.44V16.44c0-9.08-7.36-16.44-16.44-16.44ZM242.79,77.61l-10.51-5.53-10.51,5.53,2.01-11.7-8.5-8.29,11.75-1.71,5.26-10.65,5.26,10.65,11.75,1.71-8.5,8.29,2.01,11.7h-.02ZM282.64,77.61l-10.51-5.53-10.51,5.53,2.01-11.7-8.5-8.29,11.75-1.71,5.26-10.65,5.26,10.65,11.75,1.71-8.5,8.29,2.01,11.7h-.02ZM322.49,77.61l-10.51-5.53-10.51,5.53,2.01-11.7-8.5-8.29,11.75-1.71,5.26-10.65,5.26,10.65,11.75,1.71-8.5,8.29,2.01,11.7h-.02Z" fill="#949ca1;"></path></svg>