<svg xmlns="http://www.w3.org/2000/svg" viewBox="0 0 265.45 268.21" fill="white"><path d="M126.78,7.68c.12-3.03,2.6-5.42,5.53-5.38,2.98.04,5.38,2.4,5.46,5.44.05,1.84,0,3.69.04,5.53.02.75-.24,1.03-.99,1.02-1.53-.03-3.05-.01-4.58-.01h0c-1.47,0-2.94-.01-4.41.01-.77.01-1.13-.22-1.1-1.08.06-1.84-.03-3.69.05-5.53M123.6,31.19c2.89-.04,5.78,0,8.68,0s5.79-.02,8.68,0c.98,0,1.38-.25,1.37-1.34-.07-4.74-.05-9.48-.03-14.22,0-.85-.07-1.49-1.16-1.33-.87.13-1.07-.33-1.06-1.11.04-1.68.02-3.37,0-5.06-.04-4.55-3.4-8.07-7.74-8.13-4.34-.06-7.85,3.58-7.87,8.16,0,1.63-.02,3.27.02,4.9.02.84-.24,1.34-1.15,1.25-1.03-.1-1.04.54-1.03,1.29,0,4.74.03,9.48-.04,14.22,0,1.05.33,1.39,1.34,1.37M160.67,184.92c-.58.44-.69.76-.22,1.38,2.25,2.98,5.01,5.25,8.63,6.29,7.36,2.11,14.19-.12,21.28-2.67-4.74-3.62-9.32-6.85-14.89-8.3-5.5-1.43-10.36-.05-14.8,3.3M68.08,167.89c.76-.37,1.02-.7.59-1.54-2.16-4.25-5.25-7.48-9.86-9.02-6.18-2.06-12.34-1.1-18.85.12,4.02,4.34,7.95,8.18,13.07,10.55,5.03,2.33,10.05,2.34,15.06-.11M210.18,156.14c-6.51.72-11.24,3.98-14.21,9.84-.48.96-.27,1.35.64,1.76,2.52,1.14,5.12,1.93,7.91,1.76,8.74-.51,14.3-6.25,20.15-12.26-5.08-.97-9.74-1.63-14.49-1.1M203.86,96.08c1.7,6.86,5.65,11.63,12.64,13.58,1.2.34,1.63.05,1.9-1.17,1.17-5.31.19-10.13-3.04-14.49-2.93-3.95-6.75-6.9-10.81-9.58-.55-.36-1.16-1.15-1.73-.86-.61.31-.17,1.23-.21,1.88-.03.52.04,1.05.06,1.57.14,3.06.45,6.09,1.18,9.06M53.36,83.77c4.2,0,8.02-1.09,11.22-3.88,5.33-4.67,7.23-11.13,9.22-17.66-4.52.55-11.8,3.97-15.82,7.38-3.92,3.32-5.84,7.59-6.02,12.71-.04,1.09.29,1.46,1.41,1.46M124.69,191.66c-3.26-2.08-6.74-3.49-10.68-3.12-7.64.72-13.09,5.43-18.69,10.39,5.96,1.95,11.42,2.69,16.42,2.16,5.64-.6,9.99-3.31,12.99-8.15.27-.43.69-.83-.03-1.29M84.89,179.54c.5-.37,1.07-.63.45-1.46-2.85-3.74-6.4-6.39-11.15-7.09-6.63-.98-12.65,1.27-18.87,3.63,5.1,3.74,10.16,7.09,16.35,8.19,4.9.88,9.28-.32,13.22-3.27M54.31,153.56c.81-.21,1.3-.44,1-1.48-1.55-5.35-4.66-9.36-9.81-11.64-5.23-2.31-10.81-2.33-16.72-2.53,3.48,5.56,6.98,10.63,12.49,13.9,4.09,2.44,8.46,2.94,13.05,1.75M215.97,137c5.11.73,9.59-.63,13.5-3.91,4.6-3.86,7.31-9.02,9.98-14.66-5.73.82-11.15,1.58-16.01,4.32-4.94,2.78-7.77,7.09-8.62,12.71-.15.98.08,1.39,1.14,1.54M104.05,186.58c.38-.5.65-.88-.06-1.4-3.72-2.75-7.79-4.43-12.48-3.8-6.66.88-11.92,4.64-17.3,8.74,5.82,2.18,11.43,3.89,17.46,3.41,5.18-.41,9.28-2.79,12.38-6.94M223.57,138.77c-7.15,1.62-12.19,5.63-14.26,12.94-.3,1.05-.04,1.39.92,1.65,4.25,1.11,8.35.79,12.25-1.29,5.95-3.17,9.6-8.5,13.27-14.28-4.3-.05-8.29.09-12.19.98M213.22,131.87c1.63-3.35,2.43-6.83,1.76-10.55-1.34-7.45-6.15-12.69-11.4-17.99-1.13,5.84-2.22,11.37-1.13,17.08,1.06,5.52,4.23,9.37,9.1,11.98.84.45,1.25.36,1.68-.52M140.23,191.22c-.71.46-.91.76-.4,1.56,2.58,4.05,6.11,6.72,10.84,7.76,6.28,1.38,12.29-.04,18.6-1.73-3.91-3.58-7.7-6.72-12.26-8.78-5.79-2.62-11.4-2.28-16.79,1.2M184.36,151.19c-1.36,6.25.22,11.62,4.63,16.23.86.9,1.32.79,2.1-.04,2.24-2.41,3.88-5.13,4.46-8.37,1.43-7.87-1.85-14.56-5.38-21.48-2.55,4.52-4.76,8.84-5.81,13.67M59.28,63.65c4.54-.42,8.46-2.1,11.44-5.61,4.4-5.2,5.58-11.62,6.81-18.23-5.29,2.17-10.15,4.6-14.17,8.42-4.07,3.86-5.78,8.66-5.42,14.24.06.93.36,1.28,1.35,1.19M196.85,76.26c3.49,4.88,8.24,7.34,14.28,7.29,1.15-.01,1.57-.3,1.51-1.52-.26-4.79-1.95-8.9-5.52-12.17-4.59-4.2-10.23-6.27-16.36-8.05,1.47,5.3,3.06,10.19,6.1,14.45M179.4,177.6c-.5.63-.71,1.05.1,1.64,2.9,2.15,6.06,3.54,9.73,3.6,7.8.12,13.8-3.97,19.98-8.38-5.13-2.1-10.06-3.77-15.4-3.9-6.04-.15-10.74,2.35-14.42,7.04M48.42,137.24c1.18-.15,1.5-.58,1.31-1.72-.69-4.02-2.31-7.55-5.42-10.26-5.42-4.72-12.15-5.56-19.15-6.61,2.41,5.26,4.97,10,8.97,13.8,4.01,3.81,8.75,5.46,14.3,4.79M42.81,120.23c.81.21,1.25.17,1.47-.75,1.2-5.05.75-9.83-2.29-14.17-3.51-5.01-8.59-8.05-13.91-11.2.17,5.13.7,9.87,2.35,14.41,2.16,5.97,6.08,10.1,12.39,11.71M52.92,132.66c4.26-2.29,7.41-5.52,8.76-10.26,1.78-6.24.59-12.37-.68-18.59-.26.12-.42.15-.52.25-3.93,3.77-7.44,7.89-9.61,12.95-2.14,5.01-2.06,10.03.42,14.95.36.71.63,1.24,1.63.7M58.39,102.12c3.27-5.75,3.36-12.12,3.66-18.78-5.06,3.14-9.56,6.42-12.95,11.02-3.23,4.38-4.11,9.22-2.89,14.51.22.94.48,1.36,1.56,1.07,4.55-1.24,8.25-3.64,10.62-7.82M220.21,118.91c.24,1,.54,1.42,1.69,1.1,3.34-.92,6.26-2.52,8.49-5.18,5.01-5.97,5.64-13.24,6.11-20.84-.64.3-1.03.44-1.37.65-3.18,1.95-6.34,3.94-9.11,6.49-5.26,4.84-7.52,10.65-5.82,17.78M216.2,74.88c2.16-2.39,3.8-5.06,4.38-8.26,1.49-8.1-2.06-14.86-5.76-21.82-2.41,4.63-4.61,9.04-5.53,13.95-1.18,6.3.56,11.65,5.14,16.11.66.64,1.08.78,1.76.02M145.45,185.24c3.85-.08,7.65-1.61,10.86-4.62,4.31-4.03,6.69-9.23,8.86-14.57.47-1.16-.41-.79-.89-.69-3.14.62-6.25,1.41-9.25,2.55-6.72,2.56-11.52,6.83-12.71,14.33-.45,2.83-.31,3.01,3.12,3.01M68.66,155.79c0,4.71,1.78,8.68,5.07,12.03.61.63.99.67,1.62.02,4.05-4.12,5.96-8.95,5.13-14.76-.78-5.48-3.28-10.27-6.07-15.37-3.07,5.89-5.76,11.55-5.75,18.08M60.7,154.32c3.71-2.61,6.38-5.96,7.28-10.49,1.31-6.61-.65-12.76-2.75-19.19-3.46,4.28-6.48,8.46-8.17,13.46-1.88,5.55-1.44,10.85,1.81,15.84.56.87.97.98,1.82.37M204.98,63.44c1.17.13,1.6-.14,1.67-1.34.27-4.67-.93-8.86-3.97-12.45-4.11-4.85-9.65-7.47-15.62-10.06.86,5.08,1.84,9.73,4.02,14.06,2.89,5.75,7.46,9.07,13.91,9.79M49.98,75.21c4.05-3.93,6.12-8.58,5.55-14.3-.57-5.68-3.06-10.65-5.78-15.88-2.79,5-5.14,9.79-5.94,15.18-.83,5.59.58,10.53,4.42,14.72.49.54.89,1.12,1.75.29M121.12,185.37c1.13-.08,1.38-.47,1.29-1.54-.52-5.72-3.09-10.2-7.97-13.27-4.62-2.91-9.83-4.1-15.41-5.29,1.93,4.97,3.95,9.52,7.2,13.41,3.88,4.64,8.72,7.13,14.9,6.7M41.97,98.19c.62.43,1.08.73,1.65-.14,1.86-2.82,3.21-5.81,3.29-9.24.21-8.26-4.73-14.06-9.61-20.29-2.09,6.59-3.69,12.87-2.28,19.48.92,4.31,3.35,7.66,6.95,10.18M93.23,178.54c1.14.61,1.58.35,2.1-.76,2.66-5.7,2.38-11.22-.79-16.62-2.51-4.28-6.01-7.68-9.85-11.19-.92,4.99-1.45,9.69-.83,14.42.82,6.2,3.67,11.12,9.37,14.15M196.33,136.39c-.83,7.34,1.25,13.41,7.54,17.72.75.51,1.18.63,1.74-.25,1.24-1.98,2.3-4.03,2.68-6.36,1.53-9.37-3.64-16.11-8.98-23.18-1.29,4.27-2.53,8.07-2.98,12.07M220.78,97.6c.56.83.94,1.03,1.82.4,3.4-2.46,5.81-5.61,6.82-9.72,1.66-6.78-.1-13.21-2.11-19.94-3.14,3.73-5.87,7.31-7.78,11.45-2.85,6.17-2.55,12.1,1.26,17.81M171.05,178.48c3.14-1.68,5.71-3.92,7.41-7.1,1.97-3.69,2.46-7.68,2.45-11.78,0-2.9-.39-5.78-.81-8.64-.05-.3,0-.69-.31-.85-.35-.16-.56.18-.78.39-3.08,2.94-6.14,5.91-8.46,9.54-3.66,5.73-4.21,11.65-1.16,17.83.4.81.74,1.1,1.66.62M94.47,27.74c.31,1.71.73,3.4,1.44,5.22,1.35-1.67,2.57-3.11,3.72-4.61.51-.65,1.05-.88,1.87-.83,1.86.12,3.72.42,5.84.21-1.1-1.7-2.04-3.26-3.08-4.75-.54-.78-.6-1.46-.22-2.33.74-1.7,1.36-3.45,2.13-5.41-2.13.58-3.95,1.04-5.75,1.6-.8.25-1.38.12-2-.43-1.41-1.25-2.88-2.43-4.5-3.78-.39,2.09-.3,3.98-.38,5.86-.03.81-.28,1.34-1.02,1.77-1.67.97-3.26,2.06-5.08,3.23,1.83.73,3.4,1.45,5.03,1.97,1.2.38,1.77,1.07,2,2.28M157.43,28.7c2.2-.24,4.03-.37,5.84-.67.9-.15,1.47.06,2.05.73,1.23,1.41,2.53,2.76,4.02,4.37.39-1.95.8-3.57,1.01-5.21.17-1.26.63-2.09,1.87-2.57,1.59-.62,3.1-1.43,4.92-2.28-1.79-.98-3.3-1.9-4.9-2.64-1.12-.52-1.49-1.3-1.57-2.45-.12-1.71-.37-3.42-.59-5.39-1.6,1.48-3.03,2.71-4.33,4.06-.65.67-1.23.76-2.09.56-1.82-.43-3.67-.75-5.76-1.16.93,1.98,1.73,3.74,2.59,5.47.34.69.32,1.21-.09,1.89-1,1.65-1.9,3.36-2.97,5.3M107.7,45.38c-3.29-3-8.51-2.76-11.56.47-3.27,3.46-3.1,8.93.37,12.2,3.35,3.16,8.52,3.01,11.8-.26,3.16-3.15,1.68-5.52-1.28-7.32-.56-.34-1.28-.5-1.94-.59-3.02-.43-5.67.69-8.24,2.08-.52.28-.96.78-1.97.74,3.78-3.65,6.96-7.67,12.81-7.33M123.65,126.33c-.06-2.32.18-4.65.29-6.97,1.03,1.69,1.76,3.43,2.5,5.15.34.8.52,1.62,1.77,1.65,1.33.02,1.51-.88,1.88-1.72.73-1.65,1.43-3.32,2.22-5.17.37.8.33,1.37.35,1.95.08,1.89.16,3.78.28,5.68.1,1.57,1.32.74,2.05.9.65.14,1.1-.08,1.06-.92-.21-4.05-.43-8.09-.99-12.11-.05-.34,0-.72-.47-.89-1.11-.42-2.61.13-3.12,1.22-1.02,2.17-2.02,4.35-3.15,6.77-1.2-2.57-2.29-4.85-3.32-7.16-.65-1.46-1.9-.78-2.89-.81-.94-.02-.7.89-.75,1.46-.32,3.62-.6,7.24-.89,10.86-.07.85-.25,1.73,1.15,1.62,1.04-.08,2.08.25,2.03-1.5M174.34,113.95c-.78.18-.39,1.08-.39,1.66-.05,3.52,0,7.05-.1,10.58-.04,1.36.47,1.63,1.72,1.66,1.35.03,1.55-.53,1.52-1.67-.06-2.32-.02-4.65-.02-7.41.64.79.98,1.18,1.29,1.59,1.65,2.13,3.09,4.39,4.43,6.72.66,1.14,1.67.71,2.53.66,1.02-.05.58-.98.59-1.51.03-3.63-.07-7.27.02-10.9.03-1.36-.51-1.52-1.65-1.53s-1.58.24-1.5,1.49c.12,1.98.03,3.97.03,5.96-.14.02-.27.04-.4.06-.19-.25-.39-.48-.57-.74-1.47-2.12-3.05-4.16-4.73-6.12-.81-.95-1.86-.72-2.77-.51M167.84,122.43c-.5,2.2-2.35,3.29-4.55,2.67-1.56-.44-2.5-2.06-2.49-4.31,0-.79.08-1.57.41-2.31.7-1.59,2.11-2.39,3.81-2.13,2.36.36,3.54,2.9,2.83,6.08M171.35,120.98c.03-4.53-2.71-7.47-6.94-7.46-4.12,0-6.95,2.99-6.96,7.32,0,4.34,2.7,7.2,6.83,7.23,4.36.03,7.04-2.66,7.07-7.09M99.92,122.58c.13.16,0,.51.01.77,0,1.05.09,2.11,0,3.15-.13,1.59.97,1.22,1.86,1.31,1.1.11,1.44-.31,1.41-1.42-.07-3.73-.11-7.47-.03-11.2.03-1.36-.63-1.36-1.62-1.38-1.06-.01-1.61.1-1.58,1.42.07,4.05,0,4.02-3.95,3.91-1.02-.03-1.25-.41-1.2-1.32.05-.99-.02-2,0-3,.04-1.52-1.1-.88-1.79-.98-.76-.11-1.47-.12-1.43,1.05.07,1.94.02,3.89.02,5.83h0c0,2,.05,4-.02,5.99-.05,1.49,1,1.02,1.73,1.06.77.05,1.63.19,1.55-1.1-.07-1.26.03-2.53-.01-3.78-.03-.8.36-1.1,1.04-.95,1.33.31,2.89-.8,4.02.62M112.38,122.24c-.26-.03-.53-.04-.78,0-1.49.22-1.5-.44-1-1.55.47-1.04.82-2.12,1.37-3.56.58,1.54.95,2.7,1.45,3.79.55,1.2.08,1.46-1.03,1.32M113.94,114.75c-.35-.76-.83-1.06-1.58-.91-.74.15-1.69-.45-2.19.68-1.81,4.08-3.51,8.21-4.93,12.45-.08.23-.25.47,0,.71.6.56,3.17-.03,3.32-.86.33-1.77,1.36-2.28,3-2.01.46.08.96.09,1.41,0,1.31-.25,1.96.33,2.19,1.56.22,1.22.94,1.68,2.32,1.34.24-.35,1.92.91,1.26-.96-1.43-4.07-2.99-8.09-4.8-12.01M127.99,148.42c-.21.64-.68,1.06-1.4,1.06-.66,0-1.06-.42-1.32-.96-.56-1.17-.51-2.44-.59-3.69.07-1.15.04-2.31.47-3.41.27-.68.68-1.21,1.48-1.2.8,0,1.26.54,1.44,1.24.61,2.32.68,4.65-.08,6.96M130.93,149.2c.6-1.32.71-2.74.74-4.32,0-1.37-.1-2.89-.73-4.32-.81-1.83-2.13-2.97-4.22-3-2.07-.03-3.52,1.01-4.32,2.85-1.29,2.94-1.27,5.95-.04,8.89.78,1.86,2.22,2.86,4.31,2.84,2.1-.02,3.43-1.1,4.26-2.94M141.95,118.5c.18-.95-.54-2.22,1.28-2.13,1.89.09,2.91.62,2.96,1.85.06,1.4-1,2.09-2.99,2.19-1.86.1-.93-1.29-1.25-1.91M143.07,123.16c1.21,0,2.41-.1,3.56-.54,2.02-.76,2.9-2.13,2.84-4.39-.06-2.13-1.02-3.46-3.04-4.08-2.21-.67-4.47-.45-6.72-.25-.72.06-.92.47-.91,1.18.05,1.89.02,3.78.02,5.67h-.04v5.99c0,.47-.04.91.63,1.07,1.91.45,2.59-.03,2.61-1.93,0-.53.02-1.06-.02-1.58-.06-.79.23-1.14,1.07-1.14M88.05,127.67c.7-.24,1.8-.17,1.35-1.57-.36-1.11-.67-1.6-2.03-1.13-2.46.83-4.57.11-5.45-1.53-.89-1.67-.74-4.56.4-5.86,1.39-1.58,3.16-1.42,4.96-.94.25.07.5.17.74.26.28.11.47.05.68-.19,1.02-1.18.71-2.39-.76-2.79-.56-.15-1.13-.27-1.7-.35-4.4-.62-7.86,2.16-8.16,6.52-.35,5.15,2.17,8.01,7.16,7.97.87.05,1.87-.07,2.81-.39M142.76,150.63c0-.87-.14-1.41-1.18-1.38-1.46.05-2.93,0-4.4,0-.07-.12-.14-.23-.21-.35.72-.74,1.41-1.5,2.15-2.22.94-.92,1.92-1.81,2.58-2.97,1.64-2.89.19-5.76-3.1-6.13-1.45-.16-2.82.07-4.1.79-1.72.96-1.65.93-.55,2.49.81,1.15,1.22.05,1.75-.17,1.05-.45,2.22-.95,3.07.02.89,1.01.26,2.07-.58,2.92-.96.97-1.95,1.91-2.9,2.9-1.08,1.12-1.88,2.38-1.94,4.02-.03.89.14,1.35,1.18,1.32,2.37-.07,4.73-.05,7.1,0,.94.02,1.13-.4,1.14-1.24M118.87,143.56c1.24-2.31.43-4.85-1.83-5.64-2.25-.78-4.35-.35-6.3.95-.3.2-.59.39-.45.88.34,1.2,1.33,1.62,2.45,1,.27-.15.56-.31.86-.38.89-.22,1.84-.39,2.43.51.59.89.18,1.72-.47,2.42-.76.8-1.56,1.57-2.33,2.35-1.35,1.35-2.61,2.76-2.83,4.78-.11.92.08,1.47,1.22,1.44,2.37-.07,4.73-.07,7.1,0,1.1.03,1.14-.53,1.14-1.36,0-.83-.16-1.28-1.12-1.24-1.51.06-3.03,0-4.98,0,.73-.81,1.13-1.29,1.56-1.73,1.25-1.28,2.7-2.37,3.56-3.98M148.89,149.49c-.93.07-1.88.14-2.8-.21-.69-.26-1.37-.58-1.58.62-.17.95-.37,1.68.97,1.93,1.31.24,2.6.4,3.91.29,1.94-.17,3.58-.86,4.28-2.89.67-1.95.18-3.35-1.76-5.01,1.48-1.24,1.84-2.8,1.01-4.51-.85-1.74-2.5-2.11-4.25-2.15-1.06-.03-2.09.18-3.06.63-.57.26-1.41.43-.79,1.43.41.66.5,1.68,1.75.94.76-.45,1.68-.59,2.59-.32.69.21,1.04.67,1.07,1.38.03.72-.34,1.21-1,1.43-.34.11-.72.18-1.08.15-.98-.06-1.53.13-1.52,1.35,0,1.21.6,1.24,1.46,1.21.36,0,.74.03,1.09.12.95.23,1.67.73,1.59,1.83-.07,1.13-.82,1.68-1.87,1.75M137.54,81.54c-1.07.12-1.1-.52-1.15-1.34-.07-1.14.5-1.33,1.02-1.24,1.29.1,2.37.07,2.28,1.33-.09,1.28-1.23,1.14-2.15,1.24M137.93,74.95c.54.06,1.47.04,1.42,1.05-.05,1.17-1.1,1.01-1.92,1.12-1.03.14-1.04-.48-1.07-1.24-.04-1.12.7-.95,1.56-.94M141.39,78.36c-.34-.37-.58-.48-.21-1.09,1.06-1.71.37-3.36-1.53-3.94-1.54-.46-3.11-.34-4.68-.17-.64.07-.9.38-.88,1.03.03,1.36,0,2.73,0,4.1h-.03v3.94c0,.57.05,1.09.76,1.15,1.83.14,3.68.41,5.45-.28,2.06-.8,2.6-3.12,1.12-4.74M132.21,184.12c-2.43.04-4.42,2.05-4.38,4.44.04,2.51,2.1,4.57,4.51,4.53,2.46-.05,4.43-2.14,4.38-4.65-.06-2.44-2.05-4.35-4.5-4.32M96.79,101.83c-1.28.18-1.07-.7-1.15-1.47-.11-1.12.55-1.17,1.37-1.08.84.09,1.95-.08,1.96,1.21,0,1.48-1.24,1.2-2.18,1.34M97.07,95.2c.66.13,1.67.06,1.55,1.2-.13,1.2-1.22.89-1.99,1.01-1.06.16-1-.56-1.03-1.28-.05-1.13.73-.91,1.47-.93M98.85,93.63c-1.17-.32-2.38-.3-3.59-.29-1.4.03-2.13.45-1.93,2.02.14,1.03.03,2.1.03,3.15h-.02v4.1c0,.51.05.97.68,1.05,1.89.22,3.79.45,5.6-.28,2.05-.82,2.53-3.18.99-4.76-.39-.41-.49-.53-.15-1.08,1.04-1.68.32-3.39-1.6-3.91M164.66,96.73c-.05,1.28-1.09,1.2-1.95,1.31-1.31.16-.81-.86-.94-1.46-.14-.84.07-1.35,1.04-1.23.88.11,1.9.07,1.84,1.38M160.37,93.46c-.73.09-.99.4-1,1.1,0,2.63,0,5.26-.07,7.89-.02.95.28,1.29,1.25,1.29s1.25-.31,1.28-1.27c.03-.82-.58-2.12.38-2.39,1.18-.33,1.53,1.14,1.91,1.94.74,1.6,1.82,2.02,3.52,1.52-.4-1.24-1.05-2.19-1.7-3.14-.37-.54-.58-.88.12-1.37,1.13-.79,1.27-1.99.97-3.26-.31-1.28-1.27-1.89-2.45-2.19-1.39-.36-2.8-.3-4.23-.13M127.26,74.96c1.59.04,2.61,1.34,2.6,3.31,0,1.98-1.03,3.23-2.66,3.26-1.61.03-2.65-1.23-2.67-3.22,0-2.06,1.05-3.38,2.72-3.34M127.16,83.62c3.15,0,5.13-2.03,5.14-5.3,0-3.29-1.97-5.38-5.06-5.38s-5.14,2.06-5.16,5.3c-.02,3.23,2,5.38,5.08,5.38M115.62,95.35c.85.1,1.81.11,1.85,1.24.05,1.32-.99,1.35-1.97,1.46-1.24.14-1.01-.7-1.03-1.49-.16-.82.1-1.34,1.14-1.21M112.18,94.62c.03,2.63.04,5.27-.02,7.9-.03,1.03.41,1.2,1.31,1.22,1.03.03,1-.52,1.08-1.27.09-.82-.61-2.07.44-2.38,1.15-.34,1.46,1.05,1.84,1.81.77,1.54,1.77,2.26,3.59,1.63-.42-1.21-1.02-2.19-1.7-3.11-.43-.56-.44-.84.14-1.38,1.98-1.83,1.24-4.69-1.36-5.4-1.39-.38-2.8-.34-4.23-.18-.79.09-1.08.38-1.07,1.17M107.14,73.19c-2.44.75-3.77,3.2-3.37,6.04.37,2.66,2.08,4.22,4.77,4.33,3.57.16,3.94-.12,3.92-3,0-.42-.05-.85,0-1.26.16-1.2-.47-1.4-1.48-1.34-1.49.1-.86,1.2-.89,1.89-.08,1.69-.67,2.1-2.24,1.46-.86-.35-1.31-1.03-1.53-1.88-.83-3.18,1.07-5.09,4.27-4.22.84.23,1.16.12,1.46-.73.35-.99-.28-1.06-.88-1.25-1.34-.43-2.7-.45-4.03-.04M147.96,79.33c-1.32.05-1.36-.4-.89-1.39.28-.6.49-1.24.88-2.23.4,1.01.62,1.7.93,2.34.51,1.06.17,1.24-.92,1.28M147.96,73.13c-1-.01-1.41.48-1.72,1.26-.98,2.49-1.97,4.97-2.92,7.47-.17.45-.69,1.08-.23,1.41.39.29,1.11.15,1.68.13.72-.01.77-.67.88-1.14.42-1.71,1.76-.87,2.71-1.01.82-.12,1.71-.2,1.88,1.05.12.84.63,1.31,1.61,1.08,1.13.26,1.35-.19.92-1.26-1.06-2.57-2.08-5.16-3.08-7.75-.32-.82-.75-1.23-1.72-1.24M148.86,100.07c.11,2.53,1.65,3.89,4.22,3.85,2.66-.04,4.1-1.45,4.16-4.08.02-.79,0-1.58,0-2.37h-.05c0-.95-.04-1.89,0-2.84.05-.87-.24-1.2-1.15-1.2s-1.18.35-1.17,1.21c.03,1.58,0,3.15-.03,4.73-.03,1.22-.22,2.39-1.82,2.43-1.27.03-1.81-.72-1.85-2.55-.03-1.63-.06-3.26-.03-4.89.03-1-.62-.88-1.25-.91-.67-.03-1.08.1-1.06.93.04,1.89-.06,3.78.02,5.67M106.57,95.41c.89.01,1.79-.02,2.68,0,.7.02.91-.32.91-.96s-.14-.99-.87-.98c-1.68.03-3.37.03-5.05,0-.76-.02-1,.29-.99,1.02.01,1.9-.03,3.79-.04,5.69-.02,2.37,1.16,3.55,3.53,3.52.9,0,1.79-.03,2.68,0,.78.04,1.16-.18,1.14-1.05,0-.83-.43-.94-1.1-.92-.79.03-1.58,0-2.37-.01-.8-.01-1.53.07-1.53-1.19,0-1.19.55-1.28,1.45-1.23.58.04,1.16-.02,1.73,0,.66.03.94-.21.94-.91s-.21-1.08-.99-1.05c-.73.04-1.47-.04-2.21-.01-.83.03-.9-.45-.92-1.1-.03-.78.41-.84,1-.83M137.84,102.68c0-.81-.38-.97-1.07-.95-.84.02-1.68-.07-2.52-.02-.84.06-1.39,0-1.4-1.1-.02-1.06.33-1.43,1.36-1.31.57.07,1.16-.03,1.74.01.74.05,1.02-.23,1.01-.99,0-.79-.36-.99-1.06-.96-.73.03-1.47-.01-2.21,0-.75.02-.81-.43-.84-1.02-.04-.68.21-.96.9-.93.89.03,1.79-.02,2.68.01.69.03,1.07-.14,1.06-.95,0-.72-.19-1.04-.98-1.01-1.63.05-3.26.07-4.88,0-.97-.04-1.13.39-1.1,1.21.05,1.31.02,2.63.02,3.95h-.03c0,1.37.03,2.74,0,4.1-.02.75.26,1.02,1,1,1.79-.04,3.58-.04,5.36-.01.77.02.97-.3.98-1.03M124.5,101.82c-.57-.01-1.16-.09-1.69-.28-.93-.34-1.07.32-1.31.89-.31.74.23.95.74,1.08.81.21,1.63.34,2.01.42,3.54.04,5.19-1.68,4.43-4.14-.45-1.46-1.78-1.81-2.96-2.34-.73-.33-1.98-.4-1.69-1.47.32-1.17,1.52-.76,2.44-.65.1.01.21.04.3.09.83.46,1.04-.06,1.31-.73.34-.85-.2-.96-.77-1.16-1.07-.37-2.17-.42-3.26-.15-1.28.32-2.31.96-2.48,2.48-.16,1.53.52,2.52,1.86,3.12.52.23,1.08.41,1.6.64.62.27,1.42.5,1.27,1.37-.18.97-1.08.85-1.79.84M154.95,126.74c-.07-1.94-.02-3.88-.02-5.82h-.04c0-2.04-.03-4.09,0-6.14.02-1.42-1.01-.87-1.67-.92-.68-.06-1.51-.27-1.5.96.04,3.98.03,7.97,0,11.96,0,1.36.94.98,1.64.99.71,0,1.63.32,1.58-1.03M145.82,95.55c.9.24,1.07-.07,1.34-.74.32-.78-.09-1.02-.7-1.24-3.89-1.46-7.4.91-7.42,5.03-.02,4.29,3.96,6.75,7.83,4.86.56-.28.6-.54.47-1.1-.24-1.07-.83-.91-1.64-.72-2.36.56-3.75-.21-4.12-2.15-.59-3.15,1.09-4.77,4.24-3.94M73.31,98.56c-.14,3.99,2.81,6.15,7.04,5.1.59-.15,1.61-.02,1.29-1.27-.26-1.03-.78-.92-1.62-.73-2.4.54-3.77-.22-4.15-2.12-.62-3.11,1.08-4.79,4.19-4,.98.25,1.15-.11,1.42-.83.32-.88-.3-.97-.83-1.16-3.86-1.34-7.19.94-7.33,5.01M185.85,102.43c-.14.93.24,1.29,1.23,1.29s1.36-.34,1.22-1.28c-.29-1.95.41-3.57,1.48-5.15.77-1.14,1.35-2.4,2.03-3.65-3.57-1.06-3.12,2.47-4.68,3.67-.67-.62-1.07-1.45-1.34-2.27-.57-1.75-1.77-1.77-3.28-1.45.36,1.29,1.04,2.38,1.73,3.4,1.13,1.66,1.91,3.37,1.61,5.43M86.2,102.51c-.13.8.06,1.25,1.05,1.22.9-.03,1.44-.18,1.28-1.21-.3-2,.44-3.66,1.53-5.28.75-1.11,1.31-2.36,1.98-3.59-1.59-.47-2.64-.22-3.26,1.33-.33.83-.67,1.72-1.46,2.48-.49-.89-1.05-1.62-1.31-2.45-.57-1.78-1.78-1.74-3.41-1.39.66,1.19,1.21,2.31,1.87,3.36,1.08,1.7,2.09,3.39,1.73,5.53M147.41,53.6c0,1.23-.47,1.64-1.35,1.38-1.26,0-2.3-.07-2.3-1.39,0-1.51,1.22-1.41,2.28-1.5,1.16-.1,1.37.48,1.38,1.51M146.18,50.75c-.97-.1-1.9.05-2.75.48-.91.46-1.43,1.2-1.43,2.27s.3,1.91,1.24,2.39c1.75.89,3.69.77,5.35.11,1.06-.41.27-2,.44-3.05.02-.1,0-.21,0-.32h0v-1.42c-.02-3.5-1.57-4.78-4.97-4.09-.49.1-1.1.1-.99.91.14.92.73.47,1.19.43.99-.09,2.01-.3,2.75.65.34.44.51.98.29,1.48-.22.52-.75.19-1.13.15M156.26,59.42c1.54.28,2.92-.37,3.78-1.97,1.58-2.94,2.41-6.17,3.3-9.36.22-.79-.23-.88-.85-.87-.75,0-.77.59-.89,1.09-.46,1.94-.94,3.87-1.79,5.95-1.07-2.23-1.78-4.27-2.33-6.35-.22-.83-.76-.77-1.33-.67-.83.15-.37.75-.27,1.11.62,2.24,1.49,4.38,2.48,6.48.99,2.09.35,3.19-1.98,3.19-.58,0-.9,0-.94.66-.03.61.4.65.83.72M128.93,53.53c0,1.2-.4,1.64-1.22,1.49-1.33-.09-2.51-.06-2.5-1.45,0-1.48,1.24-1.4,2.29-1.48,1.08-.08,1.42.35,1.43,1.44M127.45,50.72c-.8,0-1.57.08-2.3.4-1.83.82-2.23,3.3-.73,4.56.89.75,4.65,1.14,5.64.41,1-.74.27-1.95.46-2.93.04-.2,0-.42,0-.63h0v-1.26c0-3.54-1.49-4.79-4.93-4.14-.49.09-1.12.07-1.06.86.07.89.66.56,1.16.5.73-.1,1.46-.23,2.17.1.76.36,1.14,1.03,1,1.79-.16.92-.93.35-1.42.35M172.94,94.6c-.05.61.21.81.81.86.75.07,1.77-.44,2.18.32.33.61.1,1.54.11,2.33v1.42c0,1.05.04,2.11,0,3.15-.05.89.4,1.04,1.15,1.03.69-.01,1.23-.03,1.2-.98-.05-1.57,0-3.15,0-4.73,0-2.26,0-2.29,2.26-2.54.61-.07.86-.28.81-.87-.04-.5.14-1.11-.7-1.11h-7.08c-.82,0-.67.61-.72,1.12M115.57,83.43c1.57-.05,3.15-.05,4.72,0,.8.02,1.11-.23,1.1-1.07,0-.8-.35-.99-1.05-.96-.79.03-1.57-.05-2.35,0-.89.05-1.15-.32-1.12-1.19.06-1.78.02-3.57,0-5.35,0-.8.25-1.68-1.15-1.7-1.49-.02-1.21.94-1.22,1.79-.01,1.1,0,2.21,0,3.31h0c0,1.36.03,2.73-.01,4.09-.03.81.27,1.13,1.09,1.1M140.18,49.89c-.31-1.84-1.24-2.7-3.06-2.81-.89-.06-1.78.07-2.67.11-1.12.05-1.54.59-1.41,1.72.1.94.02,1.9.02,2.84h-.04v3.48c0,.57.07,1.02.84,1.01.78,0,.81-.48.8-1.05,0-1.58,0-3.16,0-4.74,0-1.87,1.17-2.59,2.89-1.78.99.47,1.04,1.42,1.09,2.29.07,1.47.03,2.95.03,4.42,0,.57.2.87.83.86.59,0,.87-.22.85-.83-.05-1.84.15-3.69-.16-5.52M155.62,83.43c1.57-.05,3.15-.04,4.72-.02.69.01,1.06-.15,1.08-.95.03-.87-.34-1.1-1.12-1.06-.78.03-1.57-.03-2.35,0s-1.11-.23-1.09-1.09c.06-2-.04-4,.02-5.99.04-1.1-.54-1.11-1.36-1.17-.97-.06-.98.46-.97,1.16.03,1.32,0,2.63,0,3.94h-.02c0,1.37.03,2.74,0,4.1-.03.83.29,1.11,1.1,1.08M167.89,54.93c-.84.08-1.68.11-2.49-.21-.36-.14-.73-.21-.83.35-.08.43-.15.84.4,1.03.7.25,1.43.3,2.17.31.26,0,.53,0,.79-.04,1.32-.15,2.52-.5,2.77-2.06.26-1.58-.59-2.46-1.95-3.01-.63-.25-1.27-.5-1.87-.81-.44-.23-.71-.63-.63-1.17.08-.57.53-.77.99-.88.67-.17,1.36-.11,2.02.11.52.17.74.03.89-.51.16-.63-.23-.74-.64-.84-.88-.21-1.78-.27-2.66-.09-1.15.23-2.05.77-2.23,2.1-.17,1.29.42,2.11,1.53,2.63.72.33,1.45.63,2.15.98.5.25.85.66.76,1.26-.09.65-.61.79-1.16.84M153.37,56.29c.36.06.77.16.93-.32.13-.39.3-.84-.28-1.05-.92-.33-.84-1.1-.84-1.84,0-2.95,0-5.89-.05-8.84,0-.48.36-1.29-.62-1.31-.98-.03-1.01.67-1,1.41.02,1.58,0,3.15,0,4.73h-.02c0,1.68-.03,3.37,0,5.05.03,1.2.62,1.98,1.86,2.17M170.47,93.46c-.66.04-1.24-.04-1.24.94.02,2.79,0,5.58-.06,8.37-.02.99.56.93,1.22.94.7.01,1.23-.03,1.19-.98-.06-1.37,0-2.74,0-4.11h0c0-1.37-.04-2.74,0-4.11.04-.86-.31-1.1-1.11-1.05M120.18,56.31c.57-.07,1.57.2,1.43-.94-.13-1.15-.96-.43-1.46-.43-1.2.02-2.41-.02-3.04-1.2-.74-1.37-.75-2.86.05-4.21.69-1.16,1.87-1.23,3.07-1.02.53.1,1.06.32,1.17-.51.11-.82-.52-.8-1-.89-3.24-.65-5.42,1.25-5.46,4.74-.03,3.14,1.96,4.86,5.23,4.46M231.61,239.43c-.63.73-.89,1.59-.94,2.52-.07,1.17-.07,2.35.5,3.43.48.91,1.21,1.4,2.26,1.42,1.1.02,1.88-.46,2.38-1.41.45-.85.55-1.77.52-2.71.02-1.13-.12-2.21-.84-3.14-.95-1.24-2.89-1.25-3.88-.11h0ZM234.37,244.76c-.21.5-.44.68-.87.68h-.03c-.41,0-.64-.2-.85-.69-.3-.72-.32-1.57-.27-2.71.03-.74.19-1.28.48-1.71.16-.24.41-.37.69-.37s.55.15.71.42c.32.54.45,1.2.44,2.29v.04c.02.89-.07,1.52-.29,2.04h-.01ZM227.14,244.13c1.06-.94,1.83-2.03,1.83-2.03.79-1.11.49-2.55-.58-3.14-.72-.4-1.53-.44-2.31-.3-.72.12-1.39.43-1.95.95.26.37.61.84.84,1.19,0,0,.98-.78,1.71-.78s1.01.52,1.01.86-.24.8-.65,1.24c-.52.56-1.08,1.07-1.61,1.62-.79.8-1.08,1.58-1.08,2.9h5.33v-1.4h-3.45s-.13-.15.93-1.09l-.02-.02ZM240.14,244.13c1.06-.94,1.83-2.03,1.83-2.03.79-1.11.49-2.55-.58-3.14-.72-.4-1.53-.44-2.31-.3-.72.12-1.39.43-1.95.95.26.37.61.84.84,1.19,0,0,.98-.78,1.71-.78s1.01.52,1.01.86-.24.8-.65,1.24c-.52.56-1.08,1.07-1.61,1.62-.79.8-1.08,1.58-1.08,2.9h5.33v-1.4h-3.45s-.13-.15.93-1.09l-.02-.02ZM246.17,245.23s-.13-.15.93-1.09,1.83-2.03,1.83-2.03c.79-1.11.49-2.55-.58-3.14-.72-.4-1.53-.44-2.31-.3-.72.12-1.39.43-1.95.95.26.37.61.84.84,1.19,0,0,.98-.78,1.71-.78s1.01.52,1.01.86-.24.8-.65,1.24c-.52.56-1.08,1.07-1.61,1.62-.79.8-1.08,1.58-1.08,2.9h5.33v-1.4h-3.45l-.02-.02ZM21.23,264.07c-.24-.17-.45-.35-.69-.5-.89-.55-1.85-.78-2.9-.64-.66.09-1.28.3-1.88.59-.83.39-1.56.93-2.3,1.46-.11.08-.23.17-.35.26.05.02.07.04.1.05,1.14.39,2.28.76,3.49.85.56.04,1.11.02,1.66-.09,1.22-.25,2.15-.95,2.87-1.98h0ZM50.72,234.84c.17-.2.34-.37.49-.56.58-.72.91-1.55.98-2.47.05-.65-.04-1.3-.21-1.93-.26-.97-.67-1.87-1.15-2.75-.08-.15-.17-.31-.29-.51-.32.68-.64,1.31-.91,1.95-.37.88-.63,1.79-.63,2.76,0,1.44.65,2.55,1.71,3.5h.01ZM13.18,251.33s-.05.06-.06.07c-.47.85-.88,1.73-1.16,2.66-.29.97-.44,1.95-.23,2.95.2.99.72,1.79,1.51,2.52.08-.11.15-.2.23-.29,1.21-1.23,1.6-2.69,1.23-4.37-.18-.83-.51-1.61-.89-2.37-.2-.39-.41-.78-.63-1.18h0ZM6.47,234.85c.16-.17.3-.33.45-.48,1.14-1.22,1.45-2.65,1.1-4.26-.17-.8-.47-1.56-.82-2.29-.19-.39-.39-.77-.6-1.17-.55.94-1.01,1.88-1.32,2.89-.27.86-.4,1.74-.26,2.64.16,1.05.67,1.9,1.46,2.67h0ZM9.22,255.87c.44-.25.82-.56,1.16-.91.78-.83,1.14-1.83,1.18-2.96.03-.96-.15-1.89-.41-2.8-.13-.45-.27-.89-.41-1.34-.03.02-.05.02-.05.03-.72.89-1.39,1.82-1.87,2.86-.49,1.08-.73,2.19-.44,3.38.16.64.45,1.22.85,1.75h-.01ZM43.93,259.51c1.35-1.2,1.75-2.69,1.54-4.21-.1-.73-.3-1.44-.59-2.12-.27-.62-.56-1.23-.86-1.88-.05.08-.08.1-.09.14-.31.62-.65,1.23-.94,1.86-.35.77-.6,1.59-.65,2.44-.07,1.06.2,2.04.85,2.9.23.31.5.58.75.87h0ZM4.79,240.94c.08-.12.16-.23.24-.34.87-1.33,1.06-2.74.48-4.24-.32-.85-.81-1.61-1.35-2.33-.28-.38-.58-.74-.9-1.14-.3.92-.54,1.81-.66,2.73-.1.79-.12,1.57.04,2.36.27,1.3,1.01,2.26,2.14,2.97h.01ZM49.97,250.07c.51-.86.72-1.67.7-2.5,0-.76-.23-1.47-.58-2.15-.38-.74-.87-1.41-1.42-2.03-.34-.39-.71-.76-1.09-1.17-.02.08-.03.11-.03.14-.11.7-.24,1.4-.34,2.1-.1.68-.09,1.36.02,2.03.19,1.29.81,2.32,1.89,3.06.27.19.57.34.85.51h0ZM46.46,247.79c-.03.08-.03.1-.04.11-.39,1.13-.73,2.27-.8,3.48-.08,1.25.18,2.39,1,3.37.37.44.81.81,1.31,1.11.02-.02.04-.03.06-.05.86-1.19,1.15-2.49.79-3.93-.2-.8-.55-1.55-1.01-2.24-.4-.62-.84-1.21-1.3-1.85h-.01ZM51.34,238.51c.1.91.48,1.69,1.05,2.46.3-.24.59-.46.85-.7.95-.9,1.35-2.05,1.39-3.34.03-.97-.14-1.91-.39-2.84-.1-.39-.22-.77-.34-1.18-.1.12-.17.21-.24.3-.56.65-1.07,1.34-1.49,2.08-.57,1-.95,2.05-.82,3.22h0ZM7.18,250.05c.71-.34,1.33-.77,1.82-1.37.69-.84.95-1.84,1-2.9.04-.91-.08-1.81-.24-2.7-.05-.28-.12-.55-.18-.86-.13.13-.22.25-.33.35-.58.56-1.11,1.17-1.57,1.84-.75,1.08-1.28,2.24-1.17,3.6.06.73.3,1.39.67,2.04h0ZM9.27,241c.22-.61.37-1.23.43-1.87.07-.75.12-1.49.18-2.28-.1.05-.15.07-.2.1-.64.46-1.29.9-1.91,1.39-.65.52-1.21,1.13-1.64,1.85-.52.88-.73,1.83-.59,2.84.04.31.12.61.19.92.96-.19,1.79-.58,2.47-1.26.49-.48.82-1.06,1.06-1.7h.01ZM38.62,257.56c-.6,1.02-.83,2.11-.57,3.29.12.51.31.99.57,1.45.04-.01.06-.01.09-.03.87-.4,1.58-.98,2.07-1.81.61-1.03.78-2.16.75-3.33,0-.57-.07-1.13-.12-1.7-.03-.29-.09-.57-.14-.87-.17.16-.32.3-.47.44-.83.76-1.59,1.58-2.17,2.55h0ZM18.55,262.31c.09-.18.18-.35.25-.52.33-.75.49-1.53.4-2.35-.08-.72-.34-1.37-.72-1.99-.52-.85-1.19-1.57-1.89-2.25-.22-.21-.44-.41-.69-.64-.06.43-.15.82-.17,1.22-.04.62-.06,1.24-.07,1.85,0,.55.08,1.1.23,1.63.4,1.43,1.29,2.42,2.67,3.04h-.01ZM51.43,243.88c.23-.76.29-1.54.13-2.32-.19-.94-.68-1.71-1.32-2.4-.66-.72-1.44-1.3-2.25-1.85-.22-.15-.44-.29-.7-.47.03.59.06,1.13.09,1.66.06.91.22,1.8.56,2.65.28.72.71,1.34,1.3,1.82.62.51,1.35.82,2.14.98,0-.02.03-.05.04-.07h0ZM1.52,243.71c.62,1.56,1.72,2.58,3.38,2.95.12.03.15,0,.18-.11.11-.44.19-.88.2-1.34.02-.73-.13-1.42-.48-2.07-.36-.67-.87-1.22-1.44-1.72-.78-.67-1.67-1.19-2.58-1.75.05.52.09,1.01.14,1.49.09.87.27,1.73.6,2.54h0ZM51.89,244.65c-.07.66,0,1.31.19,1.95,0,.04.09.09.12.08.8-.17,1.52-.5,2.13-1.05.71-.64,1.15-1.44,1.45-2.33.28-.83.41-1.7.5-2.57.03-.33.05-.67.07-1.03-.23.14-.43.27-.63.39-.8.49-1.59,1-2.27,1.65-.84.8-1.45,1.73-1.57,2.92h0ZM8.93,231.59c.41-.06.82-.11,1.21-.22,1.25-.35,2.12-1.17,2.72-2.3.48-.91.75-1.9.96-2.9.06-.3.12-.6.18-.93-.07.03-.12.04-.16.06-.52.25-1.04.48-1.54.75-.83.44-1.61.95-2.27,1.64-1.01,1.07-1.39,2.33-1.22,3.78,0,.04.08.11.12.11h0ZM7.21,236.16c-.03.24,0,.49,0,.74.71.04,1.39-.03,2.06-.27.98-.36,1.7-1.03,2.26-1.88.55-.85.92-1.79,1.23-2.75.09-.27.17-.55.26-.86-.21.07-.37.13-.54.18-1.04.33-2.06.72-2.98,1.32-.68.44-1.27.98-1.7,1.67-.35.56-.53,1.19-.6,1.84h.01ZM45.13,231.48c-.31-.12-.63-.21-.95-.32,0,0-.03.02-.04.04.16.48.32.97.49,1.45.3.84.66,1.66,1.2,2.38.42.57.92,1.04,1.55,1.38.57.31,1.19.46,1.83.5.25.02.5,0,.78,0-.02-.26-.03-.5-.04-.73-.06-.72-.28-1.38-.67-1.98-.59-.89-1.42-1.51-2.36-1.97-.58-.28-1.18-.51-1.78-.75h-.01ZM44.27,229c.83,1.63,2.17,2.47,3.98,2.59.03,0,.1-.05.1-.09.08-.76.06-1.51-.22-2.23-.3-.81-.82-1.47-1.47-2.03-.87-.74-1.87-1.26-2.9-1.73-.19-.09-.38-.17-.6-.27.05.27.09.5.14.74.22,1.04.48,2.07.97,3.02h0ZM10.7,259.61c.35-.11.69-.26,1.06-.41-.42-.94-.99-1.69-1.83-2.23-.85-.54-1.81-.73-2.79-.74-.59,0-1.18.07-1.76.12-.46.04-.92.12-1.38.17-.01.02-.03.04-.04.06.27.26.55.53.82.79.79.76,1.62,1.46,2.63,1.93,1.06.5,2.15.65,3.29.3h0ZM48.56,256.42c-.5.12-.97.32-1.4.61-.8.53-1.34,1.26-1.73,2.14.05.03.08.05.11.07.14.07.28.13.42.19.8.34,1.63.46,2.49.31.83-.15,1.58-.5,2.27-.97.9-.61,1.68-1.37,2.42-2.16.02-.02.02-.04.04-.08-.57-.07-1.12-.14-1.67-.22-.99-.13-1.97-.13-2.94.1h-.01ZM55.7,246.48c-.96.17-1.89.41-2.75.88-.91.49-1.6,1.18-2.01,2.14-.22.51-.33,1.03-.39,1.6.15.02.27.04.4.05.66.09,1.32.05,1.96-.16.99-.31,1.75-.94,2.4-1.72.6-.71,1.06-1.5,1.49-2.32.12-.23.23-.47.36-.74-.51.09-.98.18-1.45.26h-.01ZM8.12,255.41s0-.05-.01-.07c-.02-.1-.05-.2-.08-.3-.27-.94-.74-1.75-1.51-2.35-.88-.69-1.91-1-3-1.15-.43-.06-.86-.1-1.3-.13-.4-.02-.79,0-1.19,0,0,0,.01.03.02.04.57.9,1.18,1.76,1.93,2.52.88.88,1.87,1.53,3.14,1.67.68.07,1.33-.04,1.99-.22h0ZM55.34,251.4c-.64.05-1.27.1-1.91.17-.61.07-1.2.25-1.77.5-1.19.53-2,1.4-2.43,2.63-.08.23-.14.47-.21.71.11.03.19.06.27.08.65.17,1.31.24,1.98.12.98-.17,1.81-.65,2.54-1.29.62-.54,1.13-1.18,1.61-1.85.25-.35.48-.71.72-1.06,0-.02-.02-.03-.03-.05-.26.01-.52.02-.77.04ZM14.8,263.07c.51-.2.97-.49,1.43-.85-.21-.25-.4-.48-.61-.7-.48-.51-1.05-.9-1.72-1.14-.93-.33-1.87-.31-2.82-.15-.9.16-1.75.47-2.62.75-.12.04-.24.09-.36.14v.06c.62.39,1.24.81,1.87,1.18.82.48,1.7.83,2.66.96.75.1,1.47.03,2.17-.24h0ZM3.64,250.74c.94.47,1.93.54,2.98.35-.03-.18-.05-.35-.08-.52-.23-1.31-.9-2.32-2.02-3.03-.71-.45-1.48-.73-2.3-.9-.72-.15-1.45-.29-2.22-.45.52,1.1,1.07,2.12,1.81,3.02.51.62,1.1,1.16,1.83,1.52h0ZM31.19,263.93c.57.06,1.12.06,1.67-.06,1.17-.26,2.06-.94,2.78-1.86.52-.66.92-1.39,1.27-2.14.18-.39.35-.8.53-1.23-.1.02-.14.02-.18.03-.57.14-1.13.28-1.69.44-.86.24-1.67.56-2.42,1.06-1.33.9-1.92,2.18-1.97,3.76h.01ZM19.73,258.64c.03.09.05.16.08.23.29.63.57,1.28.89,1.9.44.85,1.01,1.61,1.75,2.22,1.02.84,2.2,1.1,3.52.95-.03-.74-.16-1.43-.48-2.09-.56-1.13-1.52-1.81-2.64-2.3-.81-.35-1.66-.56-2.51-.77-.2-.05-.39-.09-.61-.14h0ZM40.94,263.34c-.84-.33-1.71-.54-2.62-.38-.86.14-1.61.54-2.31,1.05-.03.02-.04.11-.02.14.08.12.17.23.26.34.9,1.09,2.06,1.62,3.46,1.66.45.01.91-.04,1.37-.1,1.02-.12,1.98-.47,2.99-.82-.25-.17-.46-.32-.67-.47-.78-.54-1.57-1.07-2.46-1.42h0ZM47.92,260.71c-.84-.28-1.69-.52-2.59-.58-.48-.03-.95-.03-1.42.06-.73.15-1.38.45-1.95.92-.38.32-.72.68-1,1.09.45.5,1.71,1.07,2.48,1.12.86.06,1.68-.08,2.48-.38.64-.24,1.25-.56,1.83-.93.45-.29.88-.58,1.35-.89-.08-.03-.12-.05-.17-.07-.34-.12-.68-.23-1.02-.35h0ZM23.23,264.9c-.71.12-1.37.4-1.98.78-.51.32-1,.68-1.49,1.05-.36.27-.69.57-1.06.88.36.09.66.18.98.24.69.12,1.38.27,2.08.33.65.06,1.3.03,1.94-.12,1.35-.31,2.33-1.1,3.03-2.32-.32-.16-.64-.33-.96-.48-.81-.39-1.66-.5-2.54-.35h0ZM35.46,265.44c-1.03-.51-2.11-.78-3.25-.48-.44.12-.86.33-1.28.51-.17.07-.33.19-.5.28.05.07.08.12.11.16.93,1.52,2.31,2.22,4.06,2.27.74.02,1.48-.04,2.2-.2.54-.11,1.07-.24,1.61-.36v-.06c-.28-.24-.57-.47-.85-.71-.66-.54-1.34-1.05-2.1-1.43v.02ZM28.58,263.92c-.64-.01-1.08.47-1.09,1.07,0,.64.46,1.06,1.01,1.1.61.05,1.15-.43,1.16-1.06,0-.55-.4-1.11-1.08-1.11h0ZM18.76,224.64l1.19-1.46,1.88.16-1.02-1.59.73-1.74-1.83.48-1.42-1.23-.11,1.88-1.61.98,1.75.69.44,1.83ZM37.08,223.18l1.19,1.46.43-1.83,1.76-.69-1.61-.98-.11-1.88-1.43,1.23-1.82-.48.73,1.74-1.02,1.59,1.88-.16ZM28.18,242.68c.02-1.13-.12-2.21-.84-3.14-.95-1.24-2.89-1.25-3.88-.11-.63.73-.89,1.59-.94,2.52-.07,1.17-.07,2.35.5,3.43.48.91,1.21,1.4,2.26,1.42,1.1.02,1.88-.46,2.38-1.41.45-.85.55-1.77.52-2.71h0ZM26.21,244.76c-.21.5-.44.68-.87.68h-.03c-.41,0-.64-.2-.85-.69-.3-.72-.32-1.57-.27-2.71.03-.74.19-1.28.48-1.71.16-.24.41-.37.69-.37s.55.15.71.42c.32.54.45,1.2.44,2.29v.04c.02.89-.07,1.52-.29,2.04h0ZM18.52,240.01c.73,0,1.01.52,1.01.86s-.24.8-.65,1.24c-.52.56-1.08,1.07-1.61,1.62-.79.8-1.08,1.58-1.08,2.9h5.33v-1.4h-3.45s-.13-.15.93-1.09,1.83-2.03,1.83-2.03c.79-1.11.49-2.55-.58-3.14-.72-.4-1.53-.44-2.31-.3-.72.12-1.39.43-1.95.95.26.37.61.84.84,1.19,0,0,.98-.78,1.71-.78l-.02-.02ZM31.44,246.63h1.66v-7.87h-1.12s-.19.64-2.62,1.66c.14.38.3.8.48,1.27.56-.25,1.06-.48,1.6-.73v5.66h0ZM36.47,243.48c.74.35,1.48.38,2.24.16.05-.02.14-.04.21-.06-.07.2-.27.53-.42.72-.64.77-1.51.93-2.46.88-.08,0-.22.02-.22.03,0,.43,0,.87.08,1.29,0,.06.47.04.73.05.04,0,.08,0,.13,0,1.09-.1,2.13-.37,2.92-1.19.85-.88,1.11-2.08,1.12-3.49,0-.63-.17-1.37-.7-2.07-1.24-1.63-3.88-1.27-4.69.6-.52,1.21-.04,2.57,1.06,3.09ZM37.92,240.11c.75,0,1.17.57,1.13,1.81-.12.71-.87.62-1.21.58-.47-.06-.9-.43-.91-1.16,0-.84.31-1.23.99-1.24h0ZM26.15,222.82l2.34-1.19,2.29,1.19-.38-2.51,1.92-1.78-2.58-.37-1.1-2.29-1.21,2.29-2.6.36,1.83,1.79-.51,2.51ZM90.51,264.07c-.24-.17-.45-.35-.69-.5-.89-.55-1.85-.78-2.9-.64-.66.09-1.28.3-1.88.59-.83.39-1.56.93-2.3,1.46-.11.08-.23.17-.35.26.05.02.07.04.1.05,1.14.39,2.28.76,3.49.85.56.04,1.11.02,1.66-.09,1.22-.25,2.15-.95,2.87-1.98h0ZM120.01,234.84c.17-.2.34-.37.49-.56.58-.72.91-1.55.98-2.47.05-.65-.04-1.3-.21-1.93-.26-.97-.67-1.87-1.15-2.75-.08-.15-.17-.31-.29-.51-.32.68-.64,1.31-.91,1.95-.37.88-.63,1.79-.63,2.76,0,1.44.65,2.55,1.71,3.5h0ZM82.46,251.33s-.05.06-.06.07c-.47.85-.88,1.73-1.16,2.66-.29.97-.44,1.95-.23,2.95.2.99.72,1.79,1.51,2.52.08-.11.15-.2.23-.29,1.21-1.23,1.6-2.69,1.23-4.37-.18-.83-.51-1.61-.89-2.37-.2-.39-.41-.78-.63-1.18h0ZM75.75,234.85c.16-.17.3-.33.45-.48,1.14-1.22,1.45-2.65,1.1-4.26-.17-.8-.47-1.56-.83-2.29-.19-.39-.39-.77-.6-1.17-.55.94-1.01,1.88-1.32,2.89-.27.86-.4,1.74-.26,2.64.16,1.05.67,1.9,1.46,2.67h0ZM78.5,255.87c.44-.25.82-.56,1.16-.91.78-.83,1.14-1.83,1.18-2.96.03-.96-.15-1.89-.41-2.8-.13-.45-.27-.89-.41-1.34-.03.02-.05.02-.05.03-.72.89-1.39,1.82-1.87,2.86-.49,1.08-.73,2.19-.44,3.38.16.64.45,1.22.85,1.75h0ZM113.22,259.51c1.35-1.2,1.75-2.69,1.54-4.21-.1-.73-.3-1.44-.59-2.12-.27-.62-.56-1.23-.86-1.88-.05.08-.08.1-.09.14-.31.62-.65,1.23-.94,1.86-.35.77-.6,1.59-.65,2.44-.07,1.06.2,2.04.85,2.9.23.31.5.58.75.87h-.01ZM74.08,240.94c.08-.12.16-.23.24-.34.87-1.33,1.06-2.74.48-4.24-.32-.85-.81-1.61-1.35-2.33-.28-.38-.58-.74-.9-1.14-.3.92-.54,1.81-.66,2.73-.1.79-.12,1.57.04,2.36.27,1.3,1.01,2.26,2.14,2.97h.01ZM119.25,250.07c.51-.86.72-1.67.7-2.5,0-.76-.23-1.47-.58-2.15-.38-.74-.87-1.41-1.42-2.03-.34-.39-.71-.76-1.09-1.17-.02.08-.03.11-.03.14-.11.7-.24,1.4-.34,2.1-.1.68-.09,1.36.02,2.03.19,1.29.81,2.32,1.89,3.06.27.19.57.34.85.51h0ZM115.74,247.79c-.03.08-.03.1-.04.11-.39,1.13-.73,2.27-.8,3.48-.08,1.25.18,2.39,1,3.37.37.44.81.81,1.31,1.11.02-.02.04-.03.06-.05.86-1.19,1.15-2.49.79-3.93-.2-.8-.55-1.55-1.01-2.24-.4-.62-.84-1.21-1.3-1.85h0ZM120.62,238.51c.1.91.48,1.69,1.05,2.46.3-.24.59-.46.85-.7.95-.9,1.35-2.05,1.39-3.34.03-.97-.14-1.91-.39-2.84-.1-.39-.22-.77-.34-1.18-.1.12-.17.21-.24.3-.56.65-1.07,1.34-1.49,2.08-.57,1-.95,2.05-.82,3.22h0ZM76.46,250.05c.71-.34,1.33-.77,1.82-1.37.69-.84.95-1.84,1-2.9.04-.91-.08-1.81-.24-2.7-.05-.28-.12-.55-.18-.86-.13.13-.22.25-.33.35-.58.56-1.11,1.17-1.57,1.84-.75,1.08-1.28,2.24-1.17,3.6.06.73.3,1.39.67,2.04h0ZM78.55,241c.22-.61.37-1.23.43-1.87.07-.75.12-1.49.18-2.28-.1.05-.15.07-.2.1-.64.46-1.29.9-1.91,1.39-.65.52-1.21,1.13-1.64,1.85-.52.88-.73,1.83-.59,2.84.04.31.12.61.19.92.96-.19,1.79-.58,2.47-1.26.49-.48.82-1.06,1.06-1.7h0ZM107.9,257.56c-.6,1.02-.83,2.11-.57,3.29.12.51.31.99.57,1.45.04-.01.06-.01.09-.03.87-.4,1.58-.98,2.07-1.81.61-1.03.78-2.16.75-3.33-.01-.57-.07-1.13-.12-1.7-.03-.29-.09-.57-.14-.87-.17.16-.32.3-.47.44-.83.76-1.59,1.58-2.17,2.55h0ZM87.83,262.31c.09-.18.18-.35.25-.52.33-.75.49-1.53.4-2.35-.08-.72-.34-1.37-.72-1.99-.52-.85-1.19-1.57-1.89-2.25-.22-.21-.44-.41-.69-.64-.06.43-.15.82-.17,1.22-.04.62-.06,1.24-.07,1.85,0,.55.08,1.1.23,1.63.4,1.43,1.29,2.42,2.67,3.04h-.01ZM120.71,243.88c.23-.76.29-1.54.13-2.32-.19-.94-.68-1.71-1.32-2.4-.66-.72-1.44-1.3-2.25-1.85-.22-.15-.44-.29-.7-.47.03.59.06,1.13.09,1.66.06.91.22,1.8.56,2.65.28.72.71,1.34,1.3,1.82.62.51,1.35.82,2.14.98,0-.02.03-.05.04-.07h.01ZM70.81,243.71c.62,1.56,1.72,2.58,3.38,2.95.12.03.15,0,.18-.11.11-.44.19-.88.2-1.34.02-.73-.13-1.42-.48-2.07-.36-.67-.87-1.22-1.44-1.72-.78-.67-1.67-1.19-2.58-1.75.05.52.09,1.01.14,1.49.09.87.27,1.73.6,2.54h0ZM121.18,244.65c-.07.66,0,1.31.19,1.95,0,.04.09.09.12.08.8-.17,1.52-.5,2.13-1.05.71-.64,1.15-1.44,1.45-2.33.28-.83.41-1.7.5-2.57.03-.33.05-.67.07-1.03-.23.14-.43.27-.63.39-.8.49-1.59,1-2.27,1.65-.84.8-1.45,1.73-1.57,2.92h.01ZM78.21,231.59c.41-.06.82-.11,1.21-.22,1.25-.35,2.12-1.17,2.72-2.3.48-.91.75-1.9.96-2.9.06-.3.12-.6.18-.93-.07.03-.12.04-.16.06-.52.25-1.04.48-1.54.75-.83.44-1.61.95-2.27,1.64-1.01,1.07-1.39,2.33-1.22,3.78,0,.04.08.11.12.11h0ZM76.49,236.16c-.03.24,0,.49,0,.74.71.04,1.39-.03,2.06-.27.98-.36,1.7-1.03,2.26-1.88.55-.85.92-1.79,1.23-2.75.09-.27.17-.55.26-.86-.21.07-.37.13-.54.18-1.04.33-2.06.72-2.98,1.32-.68.44-1.27.98-1.7,1.67-.35.56-.53,1.19-.6,1.84h0ZM114.41,231.48c-.31-.12-.63-.21-.95-.32-.01,0-.03.02-.04.04.16.48.32.97.49,1.45.3.84.66,1.66,1.2,2.38.42.57.92,1.04,1.55,1.38.57.31,1.19.46,1.83.5.25.02.5,0,.78,0-.02-.26-.03-.5-.04-.73-.06-.72-.28-1.38-.67-1.98-.59-.89-1.42-1.51-2.36-1.97-.58-.28-1.18-.51-1.78-.75h-.01ZM113.55,229c.83,1.63,2.17,2.47,3.98,2.59.03,0,.1-.05.1-.09.08-.76.06-1.51-.22-2.23-.3-.81-.82-1.47-1.47-2.03-.87-.74-1.87-1.26-2.9-1.73-.19-.09-.38-.17-.6-.27.05.27.09.5.14.74.22,1.04.48,2.07.97,3.02h0ZM79.98,259.61c.35-.11.69-.26,1.06-.41-.42-.94-.99-1.69-1.83-2.23-.85-.54-1.81-.73-2.79-.74-.59,0-1.18.07-1.76.12-.46.04-.92.12-1.38.17-.01.02-.03.04-.04.06.27.26.55.53.82.79.79.76,1.62,1.46,2.63,1.93,1.06.5,2.15.65,3.29.3h0ZM117.84,256.42c-.5.12-.97.32-1.4.61-.8.53-1.34,1.26-1.73,2.14.05.03.08.05.11.07.14.07.28.13.42.19.8.34,1.63.46,2.49.31.83-.15,1.58-.5,2.27-.97.9-.61,1.68-1.37,2.42-2.16.02-.02.02-.04.04-.08-.57-.07-1.12-.14-1.67-.22-.99-.13-1.97-.13-2.94.1h0ZM124.98,246.48c-.96.17-1.89.41-2.75.88-.91.49-1.6,1.18-2.01,2.14-.22.51-.33,1.03-.39,1.6.15.02.27.04.4.05.66.09,1.32.05,1.96-.16.99-.31,1.75-.94,2.4-1.72.6-.71,1.06-1.5,1.49-2.32.12-.23.23-.47.36-.74-.51.09-.98.18-1.45.26h-.01ZM77.4,255.41s0-.05-.01-.07c-.02-.1-.05-.2-.08-.3-.27-.94-.74-1.75-1.51-2.35-.88-.69-1.91-1-3-1.15-.43-.06-.86-.1-1.3-.13-.4-.02-.79,0-1.19,0,0,0,.01.03.02.04.57.9,1.18,1.76,1.93,2.52.88.88,1.87,1.53,3.14,1.67.68.07,1.33-.04,1.99-.22h.01ZM124.63,251.4c-.64.05-1.27.1-1.91.17-.61.07-1.2.25-1.77.5-1.19.53-2,1.4-2.43,2.63-.08.23-.14.47-.21.71.11.03.19.06.27.08.65.17,1.31.24,1.98.12.98-.17,1.81-.65,2.54-1.29.62-.54,1.13-1.18,1.61-1.85.25-.35.48-.71.72-1.06,0-.02-.02-.03-.03-.05-.26.01-.52.02-.77.04h0ZM84.08,263.07c.51-.2.97-.49,1.43-.85-.21-.25-.4-.48-.61-.7-.48-.51-1.05-.9-1.72-1.14-.93-.33-1.87-.31-2.82-.15-.9.16-1.75.47-2.62.75-.12.04-.24.09-.36.14v.06c.62.39,1.24.81,1.87,1.18.82.48,1.7.83,2.66.96.75.1,1.47.03,2.17-.24h0ZM72.93,250.74c.94.47,1.93.54,2.98.35-.03-.18-.05-.35-.08-.52-.23-1.31-.9-2.32-2.02-3.03-.71-.45-1.48-.73-2.3-.9-.72-.15-1.45-.29-2.22-.45.52,1.1,1.07,2.12,1.81,3.02.51.62,1.1,1.16,1.83,1.52h0ZM100.47,263.93c.57.06,1.12.06,1.67-.06,1.17-.26,2.06-.94,2.78-1.86.52-.66.92-1.39,1.27-2.14.18-.39.35-.8.53-1.23-.1.02-.14.02-.18.03-.56.14-1.13.28-1.69.44-.86.24-1.67.56-2.42,1.06-1.33.9-1.92,2.18-1.97,3.76h.01ZM89.02,258.64c.03.09.05.16.08.23.29.63.57,1.28.89,1.9.44.85,1.01,1.61,1.75,2.22,1.03.84,2.2,1.1,3.52.95-.03-.74-.16-1.43-.48-2.09-.56-1.13-1.52-1.81-2.64-2.3-.81-.35-1.66-.56-2.51-.77-.2-.05-.39-.09-.61-.14h0ZM110.22,263.34c-.84-.33-1.71-.54-2.62-.38-.86.14-1.61.54-2.31,1.05-.03.02-.04.11-.02.14.08.12.17.23.26.34.9,1.09,2.06,1.62,3.46,1.66.45.01.91-.04,1.37-.1,1.02-.12,1.98-.47,2.99-.82-.25-.17-.46-.32-.67-.47-.78-.54-1.57-1.07-2.46-1.42h0ZM117.2,260.71c-.84-.28-1.69-.52-2.59-.58-.48-.03-.95-.03-1.42.06-.73.15-1.38.45-1.95.92-.38.32-.72.68-1,1.09.45.5,1.71,1.07,2.48,1.12.86.06,1.68-.08,2.48-.38.64-.24,1.25-.56,1.83-.93.45-.29.88-.58,1.35-.89-.08-.03-.12-.05-.17-.07-.34-.12-.68-.23-1.02-.35h0ZM92.52,264.9c-.71.12-1.37.4-1.98.78-.51.32-1,.68-1.49,1.05-.36.27-.69.57-1.06.88.36.09.66.18.98.24.69.12,1.38.27,2.08.33.65.06,1.3.03,1.94-.12,1.35-.31,2.33-1.1,3.03-2.32-.32-.16-.64-.33-.96-.48-.81-.39-1.66-.5-2.54-.35h0ZM104.75,265.44c-1.03-.51-2.11-.78-3.25-.48-.44.12-.86.33-1.28.51-.17.07-.33.19-.5.28.05.07.08.12.11.16.93,1.52,2.31,2.22,4.06,2.27.74.02,1.48-.04,2.2-.2.54-.11,1.07-.24,1.61-.36v-.06c-.28-.24-.57-.47-.85-.71-.66-.54-1.34-1.05-2.1-1.43v.02ZM97.87,263.92c-.64-.01-1.08.47-1.09,1.07-.01.64.46,1.06,1.01,1.1.61.05,1.15-.43,1.16-1.06.01-.55-.4-1.11-1.08-1.11h0ZM88.04,224.64l1.19-1.46,1.88.16-1.02-1.59.73-1.74-1.82.48-1.43-1.23-.11,1.88-1.61.98,1.76.69.43,1.83ZM106.36,223.18l1.19,1.46.43-1.83,1.76-.69-1.61-.98-.11-1.88-1.43,1.23-1.82-.48.73,1.74-1.02,1.59,1.88-.16ZM95.43,222.82l2.35-1.19,2.28,1.19-.38-2.51,1.92-1.78-2.58-.37-1.09-2.29-1.22,2.29-2.6.36,1.83,1.79-.51,2.51ZM160.24,264.07c-.24-.17-.45-.35-.69-.5-.89-.55-1.85-.78-2.9-.64-.66.09-1.28.3-1.88.59-.83.39-1.56.93-2.3,1.46-.11.08-.23.17-.35.26.05.02.07.04.1.05,1.14.39,2.28.76,3.49.85.56.04,1.11.02,1.66-.09,1.22-.25,2.15-.95,2.87-1.98h0ZM189.73,234.84c.17-.2.34-.37.49-.56.58-.72.91-1.55.98-2.47.05-.65-.04-1.3-.21-1.93-.26-.97-.67-1.87-1.15-2.75-.08-.15-.17-.31-.29-.51-.32.68-.64,1.31-.91,1.95-.37.88-.63,1.79-.63,2.76,0,1.44.65,2.55,1.71,3.5h0ZM152.19,251.33s-.05.06-.06.07c-.47.85-.88,1.73-1.16,2.66-.29.97-.44,1.95-.23,2.95.2.99.72,1.79,1.51,2.52.08-.11.15-.2.23-.29,1.21-1.23,1.6-2.69,1.23-4.37-.18-.83-.51-1.61-.89-2.37-.2-.39-.41-.78-.63-1.18h0ZM145.48,234.85c.16-.17.3-.33.45-.48,1.14-1.22,1.45-2.65,1.1-4.26-.17-.8-.47-1.56-.82-2.29-.19-.39-.39-.77-.6-1.17-.55.94-1.01,1.88-1.32,2.89-.27.86-.4,1.74-.26,2.64.16,1.05.67,1.9,1.46,2.67h0ZM148.23,255.87c.44-.25.82-.56,1.16-.91.78-.83,1.14-1.83,1.18-2.96.03-.96-.15-1.89-.41-2.8-.13-.45-.27-.89-.41-1.34-.03.02-.05.02-.05.03-.72.89-1.39,1.82-1.87,2.86-.49,1.08-.73,2.19-.44,3.38.16.64.45,1.22.85,1.75h0ZM182.94,259.51c1.35-1.2,1.75-2.69,1.54-4.21-.1-.73-.3-1.44-.59-2.12-.27-.62-.56-1.23-.86-1.88-.05.08-.08.1-.09.14-.31.62-.65,1.23-.94,1.86-.35.77-.6,1.59-.65,2.44-.07,1.06.2,2.04.85,2.9.23.31.5.58.75.87h-.01ZM143.8,240.94c.08-.12.16-.23.24-.34.87-1.33,1.06-2.74.48-4.24-.32-.85-.81-1.61-1.35-2.33-.28-.38-.58-.74-.9-1.14-.3.92-.54,1.81-.66,2.73-.1.79-.12,1.57.04,2.36.27,1.3,1.01,2.26,2.14,2.97h.01ZM188.98,250.07c.51-.86.72-1.67.7-2.5,0-.76-.23-1.47-.58-2.15-.38-.74-.87-1.41-1.42-2.03-.34-.39-.71-.76-1.09-1.17-.02.08-.03.11-.03.14-.11.7-.24,1.4-.34,2.1-.1.68-.09,1.36.02,2.03.19,1.29.81,2.32,1.89,3.06.27.19.57.34.85.51h0ZM185.47,247.79c-.03.08-.03.1-.04.11-.39,1.13-.73,2.27-.8,3.48-.08,1.25.18,2.39,1,3.37.37.44.81.81,1.31,1.11.02-.02.04-.03.06-.05.86-1.19,1.15-2.49.79-3.93-.2-.8-.55-1.55-1.01-2.24-.4-.62-.84-1.21-1.3-1.85h0ZM190.35,238.51c.1.91.48,1.69,1.05,2.46.3-.24.59-.46.85-.7.95-.9,1.35-2.05,1.39-3.34.03-.97-.14-1.91-.39-2.84-.1-.39-.22-.77-.34-1.18-.1.12-.17.21-.24.3-.56.65-1.07,1.34-1.49,2.08-.57,1-.95,2.05-.82,3.22h0ZM146.19,250.05c.71-.34,1.33-.77,1.82-1.37.69-.84.95-1.84,1-2.9.04-.91-.08-1.81-.24-2.7-.05-.28-.12-.55-.18-.86-.13.13-.22.25-.33.35-.58.56-1.11,1.17-1.57,1.84-.75,1.08-1.28,2.24-1.17,3.6.06.73.3,1.39.67,2.04h0ZM148.28,241c.22-.61.37-1.23.43-1.87.07-.75.12-1.49.18-2.28-.1.05-.15.07-.2.1-.64.46-1.29.9-1.91,1.39-.65.52-1.21,1.13-1.64,1.85-.52.88-.73,1.83-.59,2.84.04.31.12.61.19.92.96-.19,1.79-.58,2.47-1.26.49-.48.82-1.06,1.06-1.7h.01ZM177.63,257.56c-.6,1.02-.83,2.11-.57,3.29.12.51.31.99.57,1.45.04-.01.06-.01.09-.03.87-.4,1.58-.98,2.07-1.81.61-1.03.78-2.16.75-3.33,0-.57-.07-1.13-.12-1.7-.03-.29-.09-.57-.14-.87-.17.16-.32.3-.47.44-.83.76-1.59,1.58-2.17,2.55h-.01ZM157.56,262.31c.09-.18.18-.35.25-.52.33-.75.49-1.53.4-2.35-.08-.72-.34-1.37-.72-1.99-.52-.85-1.19-1.57-1.89-2.25-.22-.21-.44-.41-.69-.64-.06.43-.15.82-.17,1.22-.04.62-.06,1.24-.07,1.85,0,.55.08,1.1.23,1.63.4,1.43,1.29,2.42,2.67,3.04h0ZM190.44,243.88c.23-.76.29-1.54.13-2.32-.19-.94-.68-1.71-1.32-2.4-.66-.72-1.44-1.3-2.25-1.85-.22-.15-.44-.29-.7-.47.03.59.06,1.13.09,1.66.06.91.22,1.8.56,2.65.28.72.71,1.34,1.3,1.82.62.51,1.35.82,2.14.98,0-.02.03-.05.04-.07h.01ZM140.53,243.71c.62,1.56,1.72,2.58,3.38,2.95.12.03.15,0,.18-.11.11-.44.19-.88.2-1.34.02-.73-.13-1.42-.48-2.07-.36-.67-.87-1.22-1.44-1.72-.78-.67-1.67-1.19-2.58-1.75.05.52.09,1.01.14,1.49.09.87.27,1.73.6,2.54h0ZM190.91,244.65c-.07.66,0,1.31.19,1.95,0,.04.09.09.12.08.8-.17,1.52-.5,2.13-1.05.71-.64,1.15-1.44,1.45-2.33.28-.83.41-1.7.5-2.57.03-.33.05-.67.07-1.03-.23.14-.43.27-.63.39-.8.49-1.59,1-2.27,1.65-.84.8-1.45,1.73-1.57,2.92h.01ZM147.94,231.59c.41-.06.82-.11,1.21-.22,1.25-.35,2.12-1.17,2.72-2.3.48-.91.75-1.9.96-2.9.06-.3.12-.6.18-.93-.07.03-.12.04-.16.06-.52.25-1.04.48-1.54.75-.83.44-1.61.95-2.27,1.64-1.01,1.07-1.39,2.33-1.22,3.78,0,.04.08.11.12.11h0ZM146.22,236.16c-.03.24,0,.49,0,.74.71.04,1.39-.03,2.06-.27.98-.36,1.7-1.03,2.26-1.88.55-.85.92-1.79,1.23-2.75.09-.27.17-.55.26-.86-.21.07-.37.13-.54.18-1.04.33-2.06.72-2.98,1.32-.68.44-1.27.98-1.7,1.67-.35.56-.53,1.19-.6,1.84h.01ZM184.14,231.48c-.31-.12-.63-.21-.95-.32,0,0-.03.02-.04.04.16.48.32.97.49,1.45.3.84.66,1.66,1.2,2.38.42.57.92,1.04,1.55,1.38.57.31,1.19.46,1.83.5.25.02.5,0,.78,0-.02-.26-.03-.5-.04-.73-.06-.72-.28-1.38-.67-1.98-.59-.89-1.42-1.51-2.36-1.97-.58-.28-1.18-.51-1.78-.75h-.01ZM183.28,229c.83,1.63,2.17,2.47,3.98,2.59.03,0,.1-.05.1-.09.08-.76.06-1.51-.22-2.23-.3-.81-.82-1.47-1.47-2.03-.87-.74-1.87-1.26-2.9-1.73-.19-.09-.38-.17-.6-.27.05.27.09.5.14.74.22,1.04.48,2.07.97,3.02h0ZM149.71,259.61c.35-.11.69-.26,1.06-.41-.42-.94-.99-1.69-1.83-2.23-.85-.54-1.81-.73-2.79-.74-.59,0-1.18.07-1.76.12-.46.04-.92.12-1.38.17,0,.02-.03.04-.04.06.27.26.55.53.82.79.79.76,1.62,1.46,2.63,1.93,1.06.5,2.15.65,3.29.3h0ZM187.57,256.42c-.5.12-.97.32-1.4.61-.8.53-1.34,1.26-1.73,2.14.05.03.08.05.11.07.14.07.28.13.42.19.8.34,1.63.46,2.49.31.83-.15,1.58-.5,2.27-.97.9-.61,1.68-1.37,2.42-2.16.02-.02.02-.04.04-.08-.57-.07-1.12-.14-1.67-.22-.99-.13-1.97-.13-2.94.1h-.01ZM194.71,246.48c-.96.17-1.89.41-2.75.88-.91.49-1.6,1.18-2.01,2.14-.22.51-.33,1.03-.39,1.6.15.02.27.04.4.05.66.09,1.32.05,1.96-.16.99-.31,1.75-.94,2.4-1.72.6-.71,1.06-1.5,1.49-2.32.12-.23.23-.47.36-.74-.51.09-.98.18-1.45.26h-.01ZM147.13,255.41s0-.05,0-.07c-.02-.1-.05-.2-.08-.3-.27-.94-.74-1.75-1.51-2.35-.88-.69-1.91-1-3-1.15-.43-.06-.86-.1-1.3-.13-.4-.02-.79,0-1.19,0,0,0,0,.03.02.04.57.9,1.18,1.76,1.93,2.52.88.88,1.87,1.53,3.14,1.67.68.07,1.33-.04,1.99-.22h0ZM194.35,251.4c-.64.05-1.27.1-1.91.17-.61.07-1.2.25-1.77.5-1.19.53-2,1.4-2.43,2.63-.08.23-.14.47-.21.71.11.03.19.06.27.08.65.17,1.31.24,1.98.12.98-.17,1.81-.65,2.54-1.29.62-.54,1.13-1.18,1.61-1.85.25-.35.48-.71.72-1.06,0-.02-.02-.03-.03-.05-.26.01-.52.02-.77.04h0ZM153.81,263.07c.51-.2.97-.49,1.43-.85-.21-.25-.4-.48-.61-.7-.48-.51-1.05-.9-1.72-1.14-.93-.33-1.87-.31-2.82-.15-.9.16-1.75.47-2.62.75-.12.04-.24.09-.36.14v.06c.62.39,1.24.81,1.87,1.18.82.48,1.7.83,2.66.96.75.1,1.47.03,2.17-.24h0ZM142.66,250.74c.94.47,1.93.54,2.98.35-.03-.18-.05-.35-.08-.52-.23-1.31-.9-2.32-2.02-3.03-.71-.45-1.48-.73-2.3-.9-.72-.15-1.45-.29-2.22-.45.52,1.1,1.07,2.12,1.81,3.02.51.62,1.1,1.16,1.83,1.52h0ZM170.2,263.93c.57.06,1.12.06,1.67-.06,1.17-.26,2.06-.94,2.78-1.86.52-.66.92-1.39,1.27-2.14.18-.39.35-.8.53-1.23-.1.02-.14.02-.18.03-.56.14-1.13.28-1.69.44-.86.24-1.67.56-2.42,1.06-1.33.9-1.92,2.18-1.97,3.76h0ZM158.74,258.64c.03.09.05.16.08.23.29.63.57,1.28.89,1.9.44.85,1.01,1.61,1.75,2.22,1.02.84,2.2,1.1,3.52.95-.03-.74-.16-1.43-.48-2.09-.56-1.13-1.52-1.81-2.64-2.3-.81-.35-1.66-.56-2.51-.77-.2-.05-.39-.09-.61-.14h0ZM179.95,263.34c-.84-.33-1.71-.54-2.62-.38-.86.14-1.61.54-2.31,1.05-.03.02-.04.11-.02.14.08.12.17.23.26.34.9,1.09,2.06,1.62,3.46,1.66.45.01.91-.04,1.37-.1,1.02-.12,1.98-.47,2.99-.82-.25-.17-.46-.32-.67-.47-.78-.54-1.57-1.07-2.46-1.42h0ZM186.93,260.71c-.84-.28-1.69-.52-2.59-.58-.48-.03-.95-.03-1.42.06-.73.15-1.38.45-1.95.92-.38.32-.72.68-1,1.09.45.5,1.71,1.07,2.48,1.12.86.06,1.68-.08,2.48-.38.64-.24,1.25-.56,1.83-.93.45-.29.88-.58,1.35-.89-.08-.03-.12-.05-.17-.07-.34-.12-.68-.23-1.02-.35h0ZM162.24,264.9c-.71.12-1.37.4-1.98.78-.51.32-1,.68-1.49,1.05-.36.27-.69.57-1.06.88.36.09.66.18.98.24.69.12,1.38.27,2.08.33.65.06,1.3.03,1.94-.12,1.35-.31,2.33-1.1,3.03-2.32-.32-.16-.64-.33-.96-.48-.81-.39-1.66-.5-2.54-.35h0ZM174.48,265.44c-1.03-.51-2.11-.78-3.25-.48-.44.12-.86.33-1.28.51-.17.07-.33.19-.5.28.05.07.08.12.11.16.93,1.52,2.31,2.22,4.06,2.27.74.02,1.48-.04,2.2-.2.54-.11,1.07-.24,1.61-.36v-.06c-.28-.24-.57-.47-.85-.71-.66-.54-1.34-1.05-2.1-1.43v.02ZM167.59,263.92c-.64-.01-1.08.47-1.09,1.07,0,.64.46,1.06,1.01,1.1.61.05,1.15-.43,1.16-1.06,0-.55-.4-1.11-1.08-1.11h0ZM157.77,224.64l1.19-1.46,1.88.16-1.02-1.59.73-1.74-1.82.48-1.43-1.23-.11,1.88-1.61.98,1.75.69.44,1.83ZM176.09,223.18l1.19,1.46.43-1.83,1.76-.69-1.61-.98-.11-1.88-1.43,1.23-1.82-.48.73,1.74-1.02,1.59,1.88-.16ZM165.16,222.82l2.35-1.19,2.28,1.19-.38-2.51,1.92-1.78-2.58-.37-1.09-2.29-1.22,2.29-2.6.36,1.83,1.79-.51,2.51ZM229.52,264.07c-.24-.17-.45-.35-.69-.5-.89-.55-1.85-.78-2.9-.64-.66.09-1.28.3-1.88.59-.83.39-1.56.93-2.3,1.46-.11.08-.23.17-.35.26.05.02.07.04.1.05,1.14.39,2.28.76,3.49.85.56.04,1.11.02,1.66-.09,1.22-.25,2.15-.95,2.87-1.98h0ZM259.02,234.84c.17-.2.34-.37.49-.56.58-.72.91-1.55.98-2.47.05-.65-.04-1.3-.21-1.93-.26-.97-.67-1.87-1.15-2.75-.08-.15-.17-.31-.29-.51-.32.68-.64,1.31-.91,1.95-.37.88-.63,1.79-.63,2.76,0,1.44.65,2.55,1.71,3.5h.01ZM221.47,251.33s-.05.06-.06.07c-.47.85-.88,1.73-1.16,2.66-.29.97-.44,1.95-.23,2.95.2.99.72,1.79,1.51,2.52.08-.11.15-.2.23-.29,1.21-1.23,1.6-2.69,1.23-4.37-.18-.83-.51-1.61-.89-2.37-.2-.39-.41-.78-.63-1.18h0ZM214.76,234.85c.16-.17.3-.33.45-.48,1.14-1.22,1.45-2.65,1.1-4.26-.17-.8-.47-1.56-.83-2.29-.19-.39-.39-.77-.6-1.17-.55.94-1.01,1.88-1.32,2.89-.27.86-.4,1.74-.26,2.64.16,1.05.67,1.9,1.46,2.67h0ZM217.51,255.87c.44-.25.82-.56,1.16-.91.78-.83,1.14-1.83,1.18-2.96.03-.96-.15-1.89-.41-2.8-.13-.45-.27-.89-.41-1.34-.03.02-.05.02-.05.03-.72.89-1.39,1.82-1.87,2.86-.49,1.08-.73,2.19-.44,3.38.16.64.45,1.22.85,1.75h0ZM252.23,259.51c1.35-1.2,1.75-2.69,1.54-4.21-.1-.73-.3-1.44-.59-2.12-.27-.62-.56-1.23-.86-1.88-.05.08-.08.1-.09.14-.31.62-.65,1.23-.94,1.86-.35.77-.6,1.59-.65,2.44-.07,1.06.2,2.04.85,2.9.23.31.5.58.75.87h-.01ZM213.09,240.94c.08-.12.16-.23.24-.34.87-1.33,1.06-2.74.48-4.24-.32-.85-.81-1.61-1.35-2.33-.28-.38-.58-.74-.9-1.14-.3.92-.54,1.81-.66,2.73-.1.79-.12,1.57.04,2.36.27,1.3,1.01,2.26,2.14,2.97h.01ZM258.26,250.07c.51-.86.72-1.67.7-2.5-.01-.76-.23-1.47-.58-2.15-.38-.74-.87-1.41-1.42-2.03-.34-.39-.71-.76-1.09-1.17-.02.08-.03.11-.03.14-.11.7-.24,1.4-.34,2.1-.1.68-.09,1.36.02,2.03.19,1.29.81,2.32,1.89,3.06.27.19.57.34.85.51h0ZM254.75,247.79c-.03.08-.03.1-.04.11-.39,1.13-.73,2.27-.8,3.48-.08,1.25.18,2.39,1,3.37.37.44.81.81,1.31,1.11.02-.02.04-.03.06-.05.86-1.19,1.15-2.49.79-3.93-.2-.8-.55-1.55-1.01-2.24-.4-.62-.84-1.21-1.3-1.85h-.01ZM259.63,238.51c.1.91.48,1.69,1.05,2.46.3-.24.59-.46.85-.7.95-.9,1.35-2.05,1.39-3.34.03-.97-.14-1.91-.39-2.84-.1-.39-.22-.77-.34-1.18-.1.12-.17.21-.24.3-.56.65-1.07,1.34-1.49,2.08-.57,1-.95,2.05-.82,3.22h-.01ZM215.47,250.05c.71-.34,1.33-.77,1.82-1.37.69-.84.95-1.84,1-2.9.04-.91-.08-1.81-.24-2.7-.05-.28-.12-.55-.18-.86-.13.13-.22.25-.33.35-.58.56-1.11,1.17-1.57,1.84-.75,1.08-1.28,2.24-1.17,3.6.06.73.3,1.39.67,2.04h0ZM217.56,241c.22-.61.37-1.23.43-1.87.07-.75.12-1.49.18-2.28-.1.05-.15.07-.2.1-.64.46-1.29.9-1.91,1.39-.65.52-1.21,1.13-1.64,1.85-.52.88-.73,1.83-.59,2.84.04.31.12.61.19.92.96-.19,1.79-.58,2.47-1.26.49-.48.82-1.06,1.06-1.7h.01ZM246.91,257.56c-.6,1.02-.83,2.11-.57,3.29.12.51.31.99.57,1.45.04-.01.06-.01.09-.03.87-.4,1.58-.98,2.07-1.81.61-1.03.78-2.16.75-3.33-.01-.57-.07-1.13-.12-1.7-.03-.29-.09-.57-.14-.87-.17.16-.32.3-.47.44-.83.76-1.59,1.58-2.17,2.55h-.01ZM226.84,262.31c.09-.18.18-.35.25-.52.33-.75.49-1.53.4-2.35-.08-.72-.34-1.37-.72-1.99-.52-.85-1.19-1.57-1.89-2.25-.22-.21-.44-.41-.69-.64-.06.43-.15.82-.17,1.22-.04.62-.06,1.24-.07,1.85,0,.55.08,1.1.23,1.63.4,1.43,1.29,2.42,2.67,3.04h0ZM259.72,243.88c.23-.76.29-1.54.13-2.32-.19-.94-.68-1.71-1.32-2.4-.66-.72-1.44-1.3-2.25-1.85-.22-.15-.44-.29-.7-.47.03.59.06,1.13.09,1.66.06.91.22,1.8.56,2.65.28.72.71,1.34,1.3,1.82.62.51,1.35.82,2.14.98.01-.02.03-.05.04-.07h.01ZM209.82,243.71c.62,1.56,1.72,2.58,3.38,2.95.12.03.15,0,.18-.11.11-.44.19-.88.2-1.34.02-.73-.13-1.42-.48-2.07-.36-.67-.87-1.22-1.44-1.72-.78-.67-1.67-1.19-2.58-1.75.05.52.09,1.01.14,1.49.09.87.27,1.73.6,2.54h0ZM260.19,244.65c-.07.66,0,1.31.19,1.95.01.04.09.09.12.08.8-.17,1.52-.5,2.13-1.05.71-.64,1.15-1.44,1.45-2.33.28-.83.41-1.7.5-2.57.03-.33.05-.67.07-1.03-.23.14-.43.27-.63.39-.8.49-1.59,1-2.27,1.65-.84.8-1.45,1.73-1.57,2.92h0ZM217.22,231.59c.41-.06.82-.11,1.21-.22,1.25-.35,2.12-1.17,2.72-2.3.48-.91.75-1.9.96-2.9.06-.3.12-.6.18-.93-.07.03-.12.04-.16.06-.52.25-1.04.48-1.54.75-.83.44-1.61.95-2.27,1.64-1.01,1.07-1.39,2.33-1.22,3.78,0,.04.08.11.12.11h0ZM215.5,236.16c-.03.24,0,.49,0,.74.71.04,1.39-.03,2.06-.27.98-.36,1.7-1.03,2.26-1.88.55-.85.92-1.79,1.23-2.75.09-.27.17-.55.26-.86-.21.07-.37.13-.54.18-1.04.33-2.06.72-2.98,1.32-.68.44-1.27.98-1.7,1.67-.35.56-.53,1.19-.6,1.84h.01ZM253.43,231.48c-.31-.12-.63-.21-.95-.32-.01,0-.03.02-.04.04.16.48.32.97.49,1.45.3.84.66,1.66,1.2,2.38.42.57.92,1.04,1.55,1.38.57.31,1.19.46,1.83.5.25.02.5,0,.78,0-.02-.26-.03-.5-.04-.73-.06-.72-.28-1.38-.67-1.98-.59-.89-1.42-1.51-2.36-1.97-.58-.28-1.18-.51-1.78-.75h0ZM252.56,229c.83,1.63,2.17,2.47,3.98,2.59.03,0,.1-.05.1-.09.08-.76.06-1.51-.22-2.23-.3-.81-.82-1.47-1.47-2.03-.87-.74-1.87-1.26-2.9-1.73-.19-.09-.38-.17-.6-.27.05.27.09.5.14.74.22,1.04.48,2.07.97,3.02h0ZM218.99,259.61c.35-.11.69-.26,1.06-.41-.42-.94-.99-1.69-1.83-2.23-.85-.54-1.81-.73-2.79-.74-.59,0-1.18.07-1.76.12-.46.04-.92.12-1.38.17,0,.02-.03.04-.04.06.27.26.55.53.82.79.79.76,1.62,1.46,2.63,1.93,1.06.5,2.15.65,3.29.3h0ZM256.85,256.42c-.5.12-.97.32-1.4.61-.8.53-1.34,1.26-1.73,2.14.05.03.08.05.11.07.14.07.28.13.42.19.8.34,1.63.46,2.49.31.83-.15,1.58-.5,2.27-.97.9-.61,1.68-1.37,2.42-2.16.02-.02.02-.04.04-.08-.57-.07-1.12-.14-1.67-.22-.99-.13-1.97-.13-2.94.1h0ZM263.99,246.48c-.96.17-1.89.41-2.75.88-.91.49-1.6,1.18-2.01,2.14-.22.51-.33,1.03-.39,1.6.15.02.27.04.4.05.66.09,1.32.05,1.96-.16.99-.31,1.75-.94,2.4-1.72.6-.71,1.06-1.5,1.49-2.32.12-.23.23-.47.36-.74-.51.09-.98.18-1.45.26h0ZM216.41,255.41s0-.05,0-.07c-.02-.1-.05-.2-.08-.3-.27-.94-.74-1.75-1.51-2.35-.88-.69-1.91-1-3-1.15-.43-.06-.86-.1-1.3-.13-.4-.02-.79,0-1.19,0,0,0,0,.03.02.04.57.9,1.18,1.76,1.93,2.52.88.88,1.87,1.53,3.14,1.67.68.07,1.33-.04,1.99-.22h0ZM263.64,251.4c-.64.05-1.27.1-1.91.17-.61.07-1.2.25-1.77.5-1.19.53-2,1.4-2.43,2.63-.08.23-.14.47-.21.71.11.03.19.06.27.08.65.17,1.31.24,1.98.12.98-.17,1.81-.65,2.54-1.29.62-.54,1.13-1.18,1.61-1.85.25-.35.48-.71.72-1.06,0-.02-.02-.03-.03-.05-.26.01-.52.02-.77.04h0ZM223.09,263.07c.51-.2.97-.49,1.43-.85-.21-.25-.4-.48-.61-.7-.48-.51-1.05-.9-1.72-1.14-.93-.33-1.87-.31-2.82-.15-.9.16-1.75.47-2.62.75-.12.04-.24.09-.36.14v.06c.62.39,1.24.81,1.87,1.18.82.48,1.7.83,2.66.96.75.1,1.47.03,2.17-.24h0ZM211.94,250.74c.94.47,1.93.54,2.98.35-.03-.18-.05-.35-.08-.52-.23-1.31-.9-2.32-2.02-3.03-.71-.45-1.48-.73-2.3-.9-.72-.15-1.45-.29-2.22-.45.52,1.1,1.07,2.12,1.81,3.02.51.62,1.1,1.16,1.83,1.52h0ZM239.48,263.93c.57.06,1.12.06,1.67-.06,1.17-.26,2.06-.94,2.78-1.86.52-.66.92-1.39,1.27-2.14.18-.39.35-.8.53-1.23-.1.02-.14.02-.18.03-.57.14-1.13.28-1.69.44-.86.24-1.67.56-2.42,1.06-1.33.9-1.92,2.18-1.97,3.76h0ZM228.03,258.64c.03.09.05.16.08.23.29.63.57,1.28.89,1.9.44.85,1.01,1.61,1.75,2.22,1.03.84,2.2,1.1,3.52.95-.03-.74-.16-1.43-.48-2.09-.56-1.13-1.52-1.81-2.64-2.3-.81-.35-1.66-.56-2.51-.77-.2-.05-.39-.09-.61-.14h0ZM249.24,263.34c-.84-.33-1.71-.54-2.62-.38-.86.14-1.61.54-2.31,1.05-.03.02-.04.11-.02.14.08.12.17.23.26.34.9,1.09,2.06,1.62,3.46,1.66.45.01.91-.04,1.37-.1,1.02-.12,1.98-.47,2.99-.82-.25-.17-.46-.32-.67-.47-.78-.54-1.57-1.07-2.46-1.42h0ZM256.21,260.71c-.84-.28-1.69-.52-2.59-.58-.48-.03-.95-.03-1.42.06-.73.15-1.38.45-1.95.92-.38.32-.72.68-1,1.09.45.5,1.71,1.07,2.48,1.12.86.06,1.68-.08,2.48-.38.64-.24,1.25-.56,1.83-.93.45-.29.88-.58,1.35-.89-.08-.03-.12-.05-.17-.07-.34-.12-.68-.23-1.02-.35h.01ZM231.53,264.9c-.71.12-1.37.4-1.98.78-.51.32-1,.68-1.49,1.05-.36.27-.69.57-1.06.88.36.09.66.18.98.24.69.12,1.38.27,2.08.33.65.06,1.3.03,1.94-.12,1.35-.31,2.33-1.1,3.03-2.32-.32-.16-.64-.33-.96-.48-.81-.39-1.66-.5-2.54-.35h0ZM243.76,265.44c-1.03-.51-2.11-.78-3.25-.48-.44.12-.86.33-1.28.51-.17.07-.33.19-.5.28.05.07.08.12.11.16.93,1.52,2.31,2.22,4.06,2.27.74.02,1.48-.04,2.2-.2.54-.11,1.07-.24,1.61-.36v-.06c-.28-.24-.57-.47-.85-.71-.66-.54-1.34-1.05-2.1-1.43v.02ZM236.88,263.92c-.64-.01-1.08.47-1.09,1.07,0,.64.46,1.06,1.01,1.1.61.05,1.15-.43,1.16-1.06,0-.55-.4-1.11-1.08-1.11h0ZM227.05,224.64l1.19-1.46,1.88.16-1.02-1.59.73-1.74-1.82.48-1.43-1.23-.11,1.88-1.61.98,1.76.69.43,1.83ZM245.37,223.18l1.19,1.46.44-1.83,1.75-.69-1.61-.98-.11-1.88-1.43,1.23-1.82-.48.73,1.74-1.02,1.59,1.88-.16ZM234.44,222.82l2.35-1.19,2.28,1.19-.38-2.51,1.92-1.78-2.57-.37-1.1-2.29-1.22,2.29-2.6.36,1.83,1.79-.51,2.51ZM92.77,239.43c-.63.73-.89,1.59-.94,2.52-.07,1.17-.07,2.35.5,3.43.48.91,1.21,1.4,2.26,1.42,1.1.02,1.88-.46,2.38-1.41.45-.85.55-1.77.52-2.71.02-1.13-.12-2.21-.84-3.14-.95-1.24-2.89-1.25-3.88-.11h0ZM95.52,244.76c-.21.5-.44.68-.87.68h-.03c-.41,0-.64-.2-.85-.69-.3-.72-.32-1.57-.27-2.71.03-.74.19-1.28.48-1.71.16-.24.41-.37.69-.37s.55.15.71.41c.32.54.45,1.2.44,2.29v.04c.02.89-.07,1.52-.29,2.04v.02ZM109.6,239.54c-.95-1.24-2.89-1.25-3.88-.11-.63.73-.89,1.59-.94,2.52-.07,1.17-.07,2.35.5,3.43.48.91,1.21,1.4,2.26,1.42,1.1.02,1.88-.46,2.38-1.41.45-.85.55-1.77.52-2.71.02-1.13-.12-2.21-.84-3.14h0ZM108.47,244.76c-.21.5-.44.68-.87.68h-.03c-.41,0-.64-.2-.85-.69-.3-.72-.32-1.57-.27-2.71.03-.74.19-1.28.48-1.71.16-.24.41-.37.69-.37s.55.15.71.41c.32.54.45,1.2.44,2.29v.04c.02.89-.07,1.52-.29,2.04v.02ZM88.3,244.13c1.06-.94,1.83-2.03,1.83-2.03.79-1.11.49-2.55-.58-3.14-.72-.4-1.53-.44-2.31-.3-.72.12-1.39.43-1.95.95.26.37.61.84.84,1.19,0,0,.98-.78,1.71-.78s1.01.52,1.01.86-.24.8-.65,1.24c-.52.56-1.08,1.07-1.61,1.62-.79.8-1.08,1.58-1.08,2.9h5.33v-1.4h-3.45s-.13-.15.93-1.09l-.02-.02ZM101.29,244.13c1.06-.94,1.83-2.03,1.83-2.03.79-1.11.49-2.55-.58-3.14-.72-.4-1.53-.44-2.31-.3-.72.12-1.39.43-1.95.95.26.37.61.84.84,1.19,0,0,.98-.78,1.71-.78s1.01.52,1.01.86-.24.8-.65,1.24c-.52.56-1.08,1.07-1.61,1.62-.79.8-1.08,1.58-1.08,2.9h5.33v-1.4h-3.45s-.13-.15.93-1.09l-.02-.02ZM163.24,239.43c-.63.73-.89,1.59-.94,2.52-.07,1.17-.07,2.35.5,3.43.48.91,1.21,1.4,2.26,1.42,1.1.02,1.88-.46,2.38-1.41.45-.85.55-1.77.52-2.71.02-1.13-.12-2.21-.84-3.14-.95-1.24-2.89-1.25-3.88-.11h0ZM166,244.76c-.21.5-.44.68-.87.68h-.03c-.41,0-.64-.2-.85-.69-.3-.72-.32-1.57-.27-2.71.03-.74.19-1.28.48-1.71.16-.24.41-.37.69-.37s.55.15.71.41c.32.54.45,1.2.44,2.29v.04c.02.89-.07,1.52-.29,2.04v.02ZM158.77,244.13c1.06-.94,1.83-2.03,1.83-2.03.79-1.11.49-2.55-.58-3.14-.72-.4-1.53-.44-2.31-.3-.72.12-1.39.43-1.95.95.26.37.61.84.84,1.19,0,0,.98-.78,1.71-.78s1.01.52,1.01.86-.24.8-.65,1.24c-.52.56-1.08,1.07-1.61,1.62-.79.8-1.08,1.58-1.08,2.9h5.33v-1.4h-3.45s-.13-.15.93-1.09l-.02-.02ZM171.77,244.13c1.06-.94,1.83-2.03,1.83-2.03.79-1.11.49-2.55-.58-3.14-.72-.4-1.53-.44-2.31-.3-.72.12-1.39.43-1.95.95.26.37.61.84.84,1.19,0,0,.98-.78,1.71-.78s1.01.52,1.01.86-.24.8-.65,1.24c-.52.56-1.08,1.07-1.61,1.62-.79.8-1.08,1.58-1.08,2.9h5.33v-1.4h-3.45s-.13-.15.93-1.09l-.02-.02ZM178.3,238.76s-.19.64-2.62,1.66c.14.38.3.8.48,1.27.56-.25,1.06-.48,1.6-.73v5.66h1.66v-7.87h-1.12Z" fill="#949ca1"></path></svg>